%TF.GenerationSoftware,KiCad,Pcbnew,5.1.6-c6e7f7d~86~ubuntu18.04.1*%
%TF.CreationDate,2021-01-14T22:54:31-08:00*%
%TF.ProjectId,pmod_spdif,706d6f64-5f73-4706-9469-662e6b696361,rev?*%
%TF.SameCoordinates,Original*%
%TF.FileFunction,Copper,L1,Top*%
%TF.FilePolarity,Positive*%
%FSLAX46Y46*%
G04 Gerber Fmt 4.6, Leading zero omitted, Abs format (unit mm)*
G04 Created by KiCad (PCBNEW 5.1.6-c6e7f7d~86~ubuntu18.04.1) date 2021-01-14 22:54:31*
%MOMM*%
%LPD*%
G01*
G04 APERTURE LIST*
%TA.AperFunction,ComponentPad*%
%ADD10O,1.524000X1.524000*%
%TD*%
%TA.AperFunction,ComponentPad*%
%ADD11C,1.524000*%
%TD*%
%TA.AperFunction,SMDPad,CuDef*%
%ADD12R,2.000000X0.650000*%
%TD*%
%TA.AperFunction,ComponentPad*%
%ADD13O,1.700000X1.700000*%
%TD*%
%TA.AperFunction,ComponentPad*%
%ADD14R,1.700000X1.700000*%
%TD*%
%TA.AperFunction,SMDPad,CuDef*%
%ADD15R,1.060000X0.650000*%
%TD*%
%TA.AperFunction,ViaPad*%
%ADD16C,0.800000*%
%TD*%
%TA.AperFunction,Conductor*%
%ADD17C,0.250000*%
%TD*%
%TA.AperFunction,Conductor*%
%ADD18C,0.254000*%
%TD*%
G04 APERTURE END LIST*
%TO.P,C6,2*%
%TO.N,+3V3*%
%TA.AperFunction,SMDPad,CuDef*%
G36*
G01*
X158893500Y-60943000D02*
X159368500Y-60943000D01*
G75*
G02*
X159606000Y-61180500I0J-237500D01*
G01*
X159606000Y-61755500D01*
G75*
G02*
X159368500Y-61993000I-237500J0D01*
G01*
X158893500Y-61993000D01*
G75*
G02*
X158656000Y-61755500I0J237500D01*
G01*
X158656000Y-61180500D01*
G75*
G02*
X158893500Y-60943000I237500J0D01*
G01*
G37*
%TD.AperFunction*%
%TO.P,C6,1*%
%TO.N,GND*%
%TA.AperFunction,SMDPad,CuDef*%
G36*
G01*
X158893500Y-59193000D02*
X159368500Y-59193000D01*
G75*
G02*
X159606000Y-59430500I0J-237500D01*
G01*
X159606000Y-60005500D01*
G75*
G02*
X159368500Y-60243000I-237500J0D01*
G01*
X158893500Y-60243000D01*
G75*
G02*
X158656000Y-60005500I0J237500D01*
G01*
X158656000Y-59430500D01*
G75*
G02*
X158893500Y-59193000I237500J0D01*
G01*
G37*
%TD.AperFunction*%
%TD*%
D10*
%TO.P,U3,3*%
%TO.N,+5V*%
X137160000Y-57912000D03*
%TO.P,U3,2*%
%TO.N,Net-(R3-Pad1)*%
X137160000Y-60452000D03*
D11*
%TO.P,U3,5*%
%TO.N,N/C*%
X132980000Y-55252000D03*
%TO.P,U3,4*%
X132980000Y-65652000D03*
D10*
%TO.P,U3,1*%
X137160000Y-62992000D03*
%TD*%
D12*
%TO.P,U2,6*%
%TO.N,Net-(C3-Pad1)*%
X156464000Y-54742000D03*
%TO.P,U2,5*%
%TO.N,+3V3*%
X156464000Y-55692000D03*
%TO.P,U2,4*%
%TO.N,Net-(C3-Pad2)*%
X156464000Y-56642000D03*
%TO.P,U2,3*%
%TO.N,Net-(R1-Pad2)*%
X153044000Y-56642000D03*
%TO.P,U2,2*%
%TO.N,GND*%
X153044000Y-55692000D03*
%TO.P,U2,1*%
%TO.N,+5V*%
X153044000Y-54742000D03*
%TD*%
D13*
%TO.P,J2,6*%
%TO.N,+3V3*%
X156464000Y-67818000D03*
%TO.P,J2,5*%
%TO.N,/I2S_BCLK*%
X153924000Y-67818000D03*
%TO.P,J2,4*%
%TO.N,/I2S_MCLK*%
X151384000Y-67818000D03*
%TO.P,J2,3*%
%TO.N,/I2S_WS*%
X148844000Y-67818000D03*
%TO.P,J2,2*%
%TO.N,/I2S_SDO*%
X146304000Y-67818000D03*
D14*
%TO.P,J2,1*%
%TO.N,GND*%
X143764000Y-67818000D03*
%TD*%
D15*
%TO.P,U4,5*%
%TO.N,Net-(R4-Pad1)*%
X156042000Y-64074000D03*
%TO.P,U4,6*%
%TO.N,+5V*%
X156042000Y-65024000D03*
%TO.P,U4,4*%
%TO.N,/SPDIF5V*%
X156042000Y-63124000D03*
%TO.P,U4,3*%
%TO.N,/SPDIF*%
X158242000Y-63124000D03*
%TO.P,U4,2*%
%TO.N,GND*%
X158242000Y-64074000D03*
%TO.P,U4,1*%
%TO.N,+3V3*%
X158242000Y-65024000D03*
%TD*%
%TO.P,R5,2*%
%TO.N,/SPDIF5V*%
%TA.AperFunction,SMDPad,CuDef*%
G36*
G01*
X154669500Y-63771000D02*
X154194500Y-63771000D01*
G75*
G02*
X153957000Y-63533500I0J237500D01*
G01*
X153957000Y-62958500D01*
G75*
G02*
X154194500Y-62721000I237500J0D01*
G01*
X154669500Y-62721000D01*
G75*
G02*
X154907000Y-62958500I0J-237500D01*
G01*
X154907000Y-63533500D01*
G75*
G02*
X154669500Y-63771000I-237500J0D01*
G01*
G37*
%TD.AperFunction*%
%TO.P,R5,1*%
%TO.N,Net-(R5-Pad1)*%
%TA.AperFunction,SMDPad,CuDef*%
G36*
G01*
X154669500Y-65521000D02*
X154194500Y-65521000D01*
G75*
G02*
X153957000Y-65283500I0J237500D01*
G01*
X153957000Y-64708500D01*
G75*
G02*
X154194500Y-64471000I237500J0D01*
G01*
X154669500Y-64471000D01*
G75*
G02*
X154907000Y-64708500I0J-237500D01*
G01*
X154907000Y-65283500D01*
G75*
G02*
X154669500Y-65521000I-237500J0D01*
G01*
G37*
%TD.AperFunction*%
%TD*%
%TO.P,R4,2*%
%TO.N,+3V3*%
%TA.AperFunction,SMDPad,CuDef*%
G36*
G01*
X156800000Y-61705500D02*
X156800000Y-61230500D01*
G75*
G02*
X157037500Y-60993000I237500J0D01*
G01*
X157612500Y-60993000D01*
G75*
G02*
X157850000Y-61230500I0J-237500D01*
G01*
X157850000Y-61705500D01*
G75*
G02*
X157612500Y-61943000I-237500J0D01*
G01*
X157037500Y-61943000D01*
G75*
G02*
X156800000Y-61705500I0J237500D01*
G01*
G37*
%TD.AperFunction*%
%TO.P,R4,1*%
%TO.N,Net-(R4-Pad1)*%
%TA.AperFunction,SMDPad,CuDef*%
G36*
G01*
X155050000Y-61705500D02*
X155050000Y-61230500D01*
G75*
G02*
X155287500Y-60993000I237500J0D01*
G01*
X155862500Y-60993000D01*
G75*
G02*
X156100000Y-61230500I0J-237500D01*
G01*
X156100000Y-61705500D01*
G75*
G02*
X155862500Y-61943000I-237500J0D01*
G01*
X155287500Y-61943000D01*
G75*
G02*
X155050000Y-61705500I0J237500D01*
G01*
G37*
%TD.AperFunction*%
%TD*%
D13*
%TO.P,J1,12*%
%TO.N,+3V3*%
X164211000Y-54864000D03*
%TO.P,J1,6*%
X161671000Y-54864000D03*
%TO.P,J1,11*%
%TO.N,GND*%
X164211000Y-57404000D03*
%TO.P,J1,5*%
X161671000Y-57404000D03*
%TO.P,J1,10*%
%TO.N,/I2S_SDO*%
X164211000Y-59944000D03*
%TO.P,J1,4*%
%TO.N,N/C*%
X161671000Y-59944000D03*
%TO.P,J1,9*%
%TO.N,/I2S_WS*%
X164211000Y-62484000D03*
%TO.P,J1,3*%
%TO.N,N/C*%
X161671000Y-62484000D03*
%TO.P,J1,8*%
%TO.N,/I2S_BCLK*%
X164211000Y-65024000D03*
%TO.P,J1,2*%
%TO.N,/SPDIF*%
X161671000Y-65024000D03*
%TO.P,J1,7*%
%TO.N,/I2S_MCLK*%
X164211000Y-67564000D03*
D14*
%TO.P,J1,1*%
%TO.N,N/C*%
X161671000Y-67564000D03*
%TD*%
%TO.P,C5,2*%
%TO.N,GND*%
%TA.AperFunction,SMDPad,CuDef*%
G36*
G01*
X144509000Y-64753500D02*
X144509000Y-64278500D01*
G75*
G02*
X144746500Y-64041000I237500J0D01*
G01*
X145321500Y-64041000D01*
G75*
G02*
X145559000Y-64278500I0J-237500D01*
G01*
X145559000Y-64753500D01*
G75*
G02*
X145321500Y-64991000I-237500J0D01*
G01*
X144746500Y-64991000D01*
G75*
G02*
X144509000Y-64753500I0J237500D01*
G01*
G37*
%TD.AperFunction*%
%TO.P,C5,1*%
%TO.N,+5V*%
%TA.AperFunction,SMDPad,CuDef*%
G36*
G01*
X142759000Y-64753500D02*
X142759000Y-64278500D01*
G75*
G02*
X142996500Y-64041000I237500J0D01*
G01*
X143571500Y-64041000D01*
G75*
G02*
X143809000Y-64278500I0J-237500D01*
G01*
X143809000Y-64753500D01*
G75*
G02*
X143571500Y-64991000I-237500J0D01*
G01*
X142996500Y-64991000D01*
G75*
G02*
X142759000Y-64753500I0J237500D01*
G01*
G37*
%TD.AperFunction*%
%TD*%
%TO.P,U1,14*%
%TO.N,+5V*%
%TA.AperFunction,SMDPad,CuDef*%
G36*
G01*
X144615000Y-62715000D02*
X144615000Y-63015000D01*
G75*
G02*
X144465000Y-63165000I-150000J0D01*
G01*
X142815000Y-63165000D01*
G75*
G02*
X142665000Y-63015000I0J150000D01*
G01*
X142665000Y-62715000D01*
G75*
G02*
X142815000Y-62565000I150000J0D01*
G01*
X144465000Y-62565000D01*
G75*
G02*
X144615000Y-62715000I0J-150000D01*
G01*
G37*
%TD.AperFunction*%
%TO.P,U1,13*%
%TO.N,GND*%
%TA.AperFunction,SMDPad,CuDef*%
G36*
G01*
X144615000Y-61445000D02*
X144615000Y-61745000D01*
G75*
G02*
X144465000Y-61895000I-150000J0D01*
G01*
X142815000Y-61895000D01*
G75*
G02*
X142665000Y-61745000I0J150000D01*
G01*
X142665000Y-61445000D01*
G75*
G02*
X142815000Y-61295000I150000J0D01*
G01*
X144465000Y-61295000D01*
G75*
G02*
X144615000Y-61445000I0J-150000D01*
G01*
G37*
%TD.AperFunction*%
%TO.P,U1,12*%
%TO.N,N/C*%
%TA.AperFunction,SMDPad,CuDef*%
G36*
G01*
X144615000Y-60175000D02*
X144615000Y-60475000D01*
G75*
G02*
X144465000Y-60625000I-150000J0D01*
G01*
X142815000Y-60625000D01*
G75*
G02*
X142665000Y-60475000I0J150000D01*
G01*
X142665000Y-60175000D01*
G75*
G02*
X142815000Y-60025000I150000J0D01*
G01*
X144465000Y-60025000D01*
G75*
G02*
X144615000Y-60175000I0J-150000D01*
G01*
G37*
%TD.AperFunction*%
%TO.P,U1,11*%
%TO.N,GND*%
%TA.AperFunction,SMDPad,CuDef*%
G36*
G01*
X144615000Y-58905000D02*
X144615000Y-59205000D01*
G75*
G02*
X144465000Y-59355000I-150000J0D01*
G01*
X142815000Y-59355000D01*
G75*
G02*
X142665000Y-59205000I0J150000D01*
G01*
X142665000Y-58905000D01*
G75*
G02*
X142815000Y-58755000I150000J0D01*
G01*
X144465000Y-58755000D01*
G75*
G02*
X144615000Y-58905000I0J-150000D01*
G01*
G37*
%TD.AperFunction*%
%TO.P,U1,10*%
%TO.N,N/C*%
%TA.AperFunction,SMDPad,CuDef*%
G36*
G01*
X144615000Y-57635000D02*
X144615000Y-57935000D01*
G75*
G02*
X144465000Y-58085000I-150000J0D01*
G01*
X142815000Y-58085000D01*
G75*
G02*
X142665000Y-57935000I0J150000D01*
G01*
X142665000Y-57635000D01*
G75*
G02*
X142815000Y-57485000I150000J0D01*
G01*
X144465000Y-57485000D01*
G75*
G02*
X144615000Y-57635000I0J-150000D01*
G01*
G37*
%TD.AperFunction*%
%TO.P,U1,9*%
%TO.N,GND*%
%TA.AperFunction,SMDPad,CuDef*%
G36*
G01*
X144615000Y-56365000D02*
X144615000Y-56665000D01*
G75*
G02*
X144465000Y-56815000I-150000J0D01*
G01*
X142815000Y-56815000D01*
G75*
G02*
X142665000Y-56665000I0J150000D01*
G01*
X142665000Y-56365000D01*
G75*
G02*
X142815000Y-56215000I150000J0D01*
G01*
X144465000Y-56215000D01*
G75*
G02*
X144615000Y-56365000I0J-150000D01*
G01*
G37*
%TD.AperFunction*%
%TO.P,U1,8*%
%TO.N,N/C*%
%TA.AperFunction,SMDPad,CuDef*%
G36*
G01*
X144615000Y-55095000D02*
X144615000Y-55395000D01*
G75*
G02*
X144465000Y-55545000I-150000J0D01*
G01*
X142815000Y-55545000D01*
G75*
G02*
X142665000Y-55395000I0J150000D01*
G01*
X142665000Y-55095000D01*
G75*
G02*
X142815000Y-54945000I150000J0D01*
G01*
X144465000Y-54945000D01*
G75*
G02*
X144615000Y-55095000I0J-150000D01*
G01*
G37*
%TD.AperFunction*%
%TO.P,U1,7*%
%TO.N,GND*%
%TA.AperFunction,SMDPad,CuDef*%
G36*
G01*
X149565000Y-55095000D02*
X149565000Y-55395000D01*
G75*
G02*
X149415000Y-55545000I-150000J0D01*
G01*
X147765000Y-55545000D01*
G75*
G02*
X147615000Y-55395000I0J150000D01*
G01*
X147615000Y-55095000D01*
G75*
G02*
X147765000Y-54945000I150000J0D01*
G01*
X149415000Y-54945000D01*
G75*
G02*
X149565000Y-55095000I0J-150000D01*
G01*
G37*
%TD.AperFunction*%
%TO.P,U1,6*%
%TO.N,N/C*%
%TA.AperFunction,SMDPad,CuDef*%
G36*
G01*
X149565000Y-56365000D02*
X149565000Y-56665000D01*
G75*
G02*
X149415000Y-56815000I-150000J0D01*
G01*
X147765000Y-56815000D01*
G75*
G02*
X147615000Y-56665000I0J150000D01*
G01*
X147615000Y-56365000D01*
G75*
G02*
X147765000Y-56215000I150000J0D01*
G01*
X149415000Y-56215000D01*
G75*
G02*
X149565000Y-56365000I0J-150000D01*
G01*
G37*
%TD.AperFunction*%
%TO.P,U1,5*%
%TO.N,GND*%
%TA.AperFunction,SMDPad,CuDef*%
G36*
G01*
X149565000Y-57635000D02*
X149565000Y-57935000D01*
G75*
G02*
X149415000Y-58085000I-150000J0D01*
G01*
X147765000Y-58085000D01*
G75*
G02*
X147615000Y-57935000I0J150000D01*
G01*
X147615000Y-57635000D01*
G75*
G02*
X147765000Y-57485000I150000J0D01*
G01*
X149415000Y-57485000D01*
G75*
G02*
X149565000Y-57635000I0J-150000D01*
G01*
G37*
%TD.AperFunction*%
%TO.P,U1,4*%
%TO.N,Net-(C2-Pad1)*%
%TA.AperFunction,SMDPad,CuDef*%
G36*
G01*
X149565000Y-58905000D02*
X149565000Y-59205000D01*
G75*
G02*
X149415000Y-59355000I-150000J0D01*
G01*
X147765000Y-59355000D01*
G75*
G02*
X147615000Y-59205000I0J150000D01*
G01*
X147615000Y-58905000D01*
G75*
G02*
X147765000Y-58755000I150000J0D01*
G01*
X149415000Y-58755000D01*
G75*
G02*
X149565000Y-58905000I0J-150000D01*
G01*
G37*
%TD.AperFunction*%
%TO.P,U1,3*%
%TO.N,Net-(R5-Pad1)*%
%TA.AperFunction,SMDPad,CuDef*%
G36*
G01*
X149565000Y-60175000D02*
X149565000Y-60475000D01*
G75*
G02*
X149415000Y-60625000I-150000J0D01*
G01*
X147765000Y-60625000D01*
G75*
G02*
X147615000Y-60475000I0J150000D01*
G01*
X147615000Y-60175000D01*
G75*
G02*
X147765000Y-60025000I150000J0D01*
G01*
X149415000Y-60025000D01*
G75*
G02*
X149565000Y-60175000I0J-150000D01*
G01*
G37*
%TD.AperFunction*%
%TO.P,U1,2*%
%TO.N,Net-(C2-Pad1)*%
%TA.AperFunction,SMDPad,CuDef*%
G36*
G01*
X149565000Y-61445000D02*
X149565000Y-61745000D01*
G75*
G02*
X149415000Y-61895000I-150000J0D01*
G01*
X147765000Y-61895000D01*
G75*
G02*
X147615000Y-61745000I0J150000D01*
G01*
X147615000Y-61445000D01*
G75*
G02*
X147765000Y-61295000I150000J0D01*
G01*
X149415000Y-61295000D01*
G75*
G02*
X149565000Y-61445000I0J-150000D01*
G01*
G37*
%TD.AperFunction*%
%TO.P,U1,1*%
%TO.N,Net-(R5-Pad1)*%
%TA.AperFunction,SMDPad,CuDef*%
G36*
G01*
X149565000Y-62715000D02*
X149565000Y-63015000D01*
G75*
G02*
X149415000Y-63165000I-150000J0D01*
G01*
X147765000Y-63165000D01*
G75*
G02*
X147615000Y-63015000I0J150000D01*
G01*
X147615000Y-62715000D01*
G75*
G02*
X147765000Y-62565000I150000J0D01*
G01*
X149415000Y-62565000D01*
G75*
G02*
X149565000Y-62715000I0J-150000D01*
G01*
G37*
%TD.AperFunction*%
%TD*%
%TO.P,R3,2*%
%TO.N,Net-(C2-Pad2)*%
%TA.AperFunction,SMDPad,CuDef*%
G36*
G01*
X148319000Y-64753500D02*
X148319000Y-64278500D01*
G75*
G02*
X148556500Y-64041000I237500J0D01*
G01*
X149131500Y-64041000D01*
G75*
G02*
X149369000Y-64278500I0J-237500D01*
G01*
X149369000Y-64753500D01*
G75*
G02*
X149131500Y-64991000I-237500J0D01*
G01*
X148556500Y-64991000D01*
G75*
G02*
X148319000Y-64753500I0J237500D01*
G01*
G37*
%TD.AperFunction*%
%TO.P,R3,1*%
%TO.N,Net-(R3-Pad1)*%
%TA.AperFunction,SMDPad,CuDef*%
G36*
G01*
X146569000Y-64753500D02*
X146569000Y-64278500D01*
G75*
G02*
X146806500Y-64041000I237500J0D01*
G01*
X147381500Y-64041000D01*
G75*
G02*
X147619000Y-64278500I0J-237500D01*
G01*
X147619000Y-64753500D01*
G75*
G02*
X147381500Y-64991000I-237500J0D01*
G01*
X146806500Y-64991000D01*
G75*
G02*
X146569000Y-64753500I0J237500D01*
G01*
G37*
%TD.AperFunction*%
%TD*%
%TO.P,R2,2*%
%TO.N,Net-(C2-Pad1)*%
%TA.AperFunction,SMDPad,CuDef*%
G36*
G01*
X150986500Y-61612000D02*
X150511500Y-61612000D01*
G75*
G02*
X150274000Y-61374500I0J237500D01*
G01*
X150274000Y-60799500D01*
G75*
G02*
X150511500Y-60562000I237500J0D01*
G01*
X150986500Y-60562000D01*
G75*
G02*
X151224000Y-60799500I0J-237500D01*
G01*
X151224000Y-61374500D01*
G75*
G02*
X150986500Y-61612000I-237500J0D01*
G01*
G37*
%TD.AperFunction*%
%TO.P,R2,1*%
%TO.N,Net-(C2-Pad2)*%
%TA.AperFunction,SMDPad,CuDef*%
G36*
G01*
X150986500Y-63362000D02*
X150511500Y-63362000D01*
G75*
G02*
X150274000Y-63124500I0J237500D01*
G01*
X150274000Y-62549500D01*
G75*
G02*
X150511500Y-62312000I237500J0D01*
G01*
X150986500Y-62312000D01*
G75*
G02*
X151224000Y-62549500I0J-237500D01*
G01*
X151224000Y-63124500D01*
G75*
G02*
X150986500Y-63362000I-237500J0D01*
G01*
G37*
%TD.AperFunction*%
%TD*%
%TO.P,R1,2*%
%TO.N,Net-(R1-Pad2)*%
%TA.AperFunction,SMDPad,CuDef*%
G36*
G01*
X152191000Y-58182500D02*
X152191000Y-58657500D01*
G75*
G02*
X151953500Y-58895000I-237500J0D01*
G01*
X151378500Y-58895000D01*
G75*
G02*
X151141000Y-58657500I0J237500D01*
G01*
X151141000Y-58182500D01*
G75*
G02*
X151378500Y-57945000I237500J0D01*
G01*
X151953500Y-57945000D01*
G75*
G02*
X152191000Y-58182500I0J-237500D01*
G01*
G37*
%TD.AperFunction*%
%TO.P,R1,1*%
%TO.N,+3V3*%
%TA.AperFunction,SMDPad,CuDef*%
G36*
G01*
X153941000Y-58182500D02*
X153941000Y-58657500D01*
G75*
G02*
X153703500Y-58895000I-237500J0D01*
G01*
X153128500Y-58895000D01*
G75*
G02*
X152891000Y-58657500I0J237500D01*
G01*
X152891000Y-58182500D01*
G75*
G02*
X153128500Y-57945000I237500J0D01*
G01*
X153703500Y-57945000D01*
G75*
G02*
X153941000Y-58182500I0J-237500D01*
G01*
G37*
%TD.AperFunction*%
%TD*%
%TO.P,C4,2*%
%TO.N,GND*%
%TA.AperFunction,SMDPad,CuDef*%
G36*
G01*
X150638500Y-56117000D02*
X151113500Y-56117000D01*
G75*
G02*
X151351000Y-56354500I0J-237500D01*
G01*
X151351000Y-56929500D01*
G75*
G02*
X151113500Y-57167000I-237500J0D01*
G01*
X150638500Y-57167000D01*
G75*
G02*
X150401000Y-56929500I0J237500D01*
G01*
X150401000Y-56354500D01*
G75*
G02*
X150638500Y-56117000I237500J0D01*
G01*
G37*
%TD.AperFunction*%
%TO.P,C4,1*%
%TO.N,+5V*%
%TA.AperFunction,SMDPad,CuDef*%
G36*
G01*
X150638500Y-54367000D02*
X151113500Y-54367000D01*
G75*
G02*
X151351000Y-54604500I0J-237500D01*
G01*
X151351000Y-55179500D01*
G75*
G02*
X151113500Y-55417000I-237500J0D01*
G01*
X150638500Y-55417000D01*
G75*
G02*
X150401000Y-55179500I0J237500D01*
G01*
X150401000Y-54604500D01*
G75*
G02*
X150638500Y-54367000I237500J0D01*
G01*
G37*
%TD.AperFunction*%
%TD*%
%TO.P,C3,2*%
%TO.N,Net-(C3-Pad2)*%
%TA.AperFunction,SMDPad,CuDef*%
G36*
G01*
X158512500Y-55863000D02*
X158987500Y-55863000D01*
G75*
G02*
X159225000Y-56100500I0J-237500D01*
G01*
X159225000Y-56675500D01*
G75*
G02*
X158987500Y-56913000I-237500J0D01*
G01*
X158512500Y-56913000D01*
G75*
G02*
X158275000Y-56675500I0J237500D01*
G01*
X158275000Y-56100500D01*
G75*
G02*
X158512500Y-55863000I237500J0D01*
G01*
G37*
%TD.AperFunction*%
%TO.P,C3,1*%
%TO.N,Net-(C3-Pad1)*%
%TA.AperFunction,SMDPad,CuDef*%
G36*
G01*
X158512500Y-54113000D02*
X158987500Y-54113000D01*
G75*
G02*
X159225000Y-54350500I0J-237500D01*
G01*
X159225000Y-54925500D01*
G75*
G02*
X158987500Y-55163000I-237500J0D01*
G01*
X158512500Y-55163000D01*
G75*
G02*
X158275000Y-54925500I0J237500D01*
G01*
X158275000Y-54350500D01*
G75*
G02*
X158512500Y-54113000I237500J0D01*
G01*
G37*
%TD.AperFunction*%
%TD*%
%TO.P,C2,2*%
%TO.N,Net-(C2-Pad2)*%
%TA.AperFunction,SMDPad,CuDef*%
G36*
G01*
X152035500Y-62312000D02*
X152510500Y-62312000D01*
G75*
G02*
X152748000Y-62549500I0J-237500D01*
G01*
X152748000Y-63124500D01*
G75*
G02*
X152510500Y-63362000I-237500J0D01*
G01*
X152035500Y-63362000D01*
G75*
G02*
X151798000Y-63124500I0J237500D01*
G01*
X151798000Y-62549500D01*
G75*
G02*
X152035500Y-62312000I237500J0D01*
G01*
G37*
%TD.AperFunction*%
%TO.P,C2,1*%
%TO.N,Net-(C2-Pad1)*%
%TA.AperFunction,SMDPad,CuDef*%
G36*
G01*
X152035500Y-60562000D02*
X152510500Y-60562000D01*
G75*
G02*
X152748000Y-60799500I0J-237500D01*
G01*
X152748000Y-61374500D01*
G75*
G02*
X152510500Y-61612000I-237500J0D01*
G01*
X152035500Y-61612000D01*
G75*
G02*
X151798000Y-61374500I0J237500D01*
G01*
X151798000Y-60799500D01*
G75*
G02*
X152035500Y-60562000I237500J0D01*
G01*
G37*
%TD.AperFunction*%
%TD*%
%TO.P,C1,2*%
%TO.N,GND*%
%TA.AperFunction,SMDPad,CuDef*%
G36*
G01*
X155493000Y-58182500D02*
X155493000Y-58657500D01*
G75*
G02*
X155255500Y-58895000I-237500J0D01*
G01*
X154680500Y-58895000D01*
G75*
G02*
X154443000Y-58657500I0J237500D01*
G01*
X154443000Y-58182500D01*
G75*
G02*
X154680500Y-57945000I237500J0D01*
G01*
X155255500Y-57945000D01*
G75*
G02*
X155493000Y-58182500I0J-237500D01*
G01*
G37*
%TD.AperFunction*%
%TO.P,C1,1*%
%TO.N,+3V3*%
%TA.AperFunction,SMDPad,CuDef*%
G36*
G01*
X157243000Y-58182500D02*
X157243000Y-58657500D01*
G75*
G02*
X157005500Y-58895000I-237500J0D01*
G01*
X156430500Y-58895000D01*
G75*
G02*
X156193000Y-58657500I0J237500D01*
G01*
X156193000Y-58182500D01*
G75*
G02*
X156430500Y-57945000I237500J0D01*
G01*
X157005500Y-57945000D01*
G75*
G02*
X157243000Y-58182500I0J-237500D01*
G01*
G37*
%TD.AperFunction*%
%TD*%
D16*
%TO.N,GND*%
X156337000Y-53594000D03*
X155956000Y-59436000D03*
X159639000Y-64135000D03*
X146177000Y-63246000D03*
X141986000Y-57531000D03*
X146939000Y-58420000D03*
%TD*%
D17*
%TO.N,GND*%
X151826000Y-55692000D02*
X153044000Y-55692000D01*
X150876000Y-56642000D02*
X151826000Y-55692000D01*
X159385000Y-59690000D02*
X161671000Y-57404000D01*
X159385000Y-59718000D02*
X159385000Y-59690000D01*
X150815990Y-56702010D02*
X150876000Y-56642000D01*
X143640000Y-61595000D02*
X144615000Y-61595000D01*
X144615000Y-56515000D02*
X143640000Y-56515000D01*
X143640000Y-59055000D02*
X144615000Y-59055000D01*
X148590000Y-55245000D02*
X147615000Y-55245000D01*
X149733000Y-57785000D02*
X150876000Y-56642000D01*
X148590000Y-57785000D02*
X149733000Y-57785000D01*
X149565000Y-57785000D02*
X148590000Y-57785000D01*
X154874000Y-54421998D02*
X155320998Y-53975000D01*
X155956000Y-53975000D02*
X156337000Y-53594000D01*
X155320998Y-53975000D02*
X155956000Y-53975000D01*
X154361000Y-55692000D02*
X154874000Y-55179000D01*
X153044000Y-55692000D02*
X154361000Y-55692000D01*
X154874000Y-55179000D02*
X154874000Y-54421998D01*
X154968000Y-58448000D02*
X155956000Y-59436000D01*
X154968000Y-58420000D02*
X154968000Y-58448000D01*
X158242000Y-64074000D02*
X159578000Y-64074000D01*
X159578000Y-64074000D02*
X159639000Y-64135000D01*
X145034000Y-64389000D02*
X146177000Y-63246000D01*
X145034000Y-64516000D02*
X145034000Y-64389000D01*
X143263232Y-59055000D02*
X143640000Y-59055000D01*
X142339990Y-59978242D02*
X143263232Y-59055000D01*
X142339990Y-61269990D02*
X142339990Y-59978242D01*
X142665000Y-61595000D02*
X142339990Y-61269990D01*
X143640000Y-61595000D02*
X142665000Y-61595000D01*
X142339990Y-57438242D02*
X143263232Y-56515000D01*
X142339990Y-58729990D02*
X142339990Y-57438242D01*
X142665000Y-59055000D02*
X142339990Y-58729990D01*
X143263232Y-56515000D02*
X143640000Y-56515000D01*
X143640000Y-59055000D02*
X142665000Y-59055000D01*
X142078758Y-57438242D02*
X141986000Y-57531000D01*
X142339990Y-57438242D02*
X142078758Y-57438242D01*
X148590000Y-55245000D02*
X147447000Y-55245000D01*
X147615000Y-57785000D02*
X148590000Y-57785000D01*
X147289990Y-57459990D02*
X147615000Y-57785000D01*
X147447000Y-55245000D02*
X147289990Y-55402010D01*
X147289990Y-58069010D02*
X146939000Y-58420000D01*
X147289990Y-56611990D02*
X147289990Y-58069010D01*
X147289990Y-55402010D02*
X147289990Y-56611990D01*
X147289990Y-56611990D02*
X147289990Y-57459990D01*
%TO.N,+3V3*%
X155586508Y-55692000D02*
X156464000Y-55692000D01*
X154369001Y-57466999D02*
X154369001Y-56909507D01*
X153416000Y-58420000D02*
X154369001Y-57466999D01*
X155138999Y-56139509D02*
X154788254Y-56490254D01*
X154369001Y-56909507D02*
X154788254Y-56490254D01*
X161671000Y-54864000D02*
X164211000Y-54864000D01*
X155138999Y-56139509D02*
X155169254Y-56109254D01*
X155138999Y-57227001D02*
X155138999Y-56139509D01*
X155531988Y-57619990D02*
X155138999Y-57227001D01*
X155917990Y-57619990D02*
X155531988Y-57619990D01*
X155169254Y-56109254D02*
X155586508Y-55692000D01*
X156718000Y-58420000D02*
X155917990Y-57619990D01*
X154788254Y-56490254D02*
X155169254Y-56109254D01*
X158242000Y-66040000D02*
X156464000Y-67818000D01*
X158242000Y-65024000D02*
X158242000Y-66040000D01*
X158242000Y-59690000D02*
X156718000Y-58166000D01*
X158242000Y-61468000D02*
X158242000Y-59690000D01*
X158242000Y-58293000D02*
X158242000Y-59690000D01*
X161671000Y-54864000D02*
X158242000Y-58293000D01*
X157386999Y-64948999D02*
X157386999Y-61529999D01*
X157386999Y-61529999D02*
X157325000Y-61468000D01*
X157462000Y-65024000D02*
X157386999Y-64948999D01*
X158242000Y-65024000D02*
X157462000Y-65024000D01*
X157325000Y-61468000D02*
X158242000Y-61468000D01*
X158242000Y-61468000D02*
X159131000Y-61468000D01*
%TO.N,Net-(C2-Pad2)*%
X148844000Y-64516000D02*
X148971000Y-64516000D01*
X149070000Y-64516000D02*
X150749000Y-62837000D01*
X148844000Y-64516000D02*
X149070000Y-64516000D01*
X152273000Y-62837000D02*
X150749000Y-62837000D01*
%TO.N,Net-(C2-Pad1)*%
X147615000Y-59055000D02*
X148590000Y-59055000D01*
X147289990Y-59380010D02*
X147615000Y-59055000D01*
X147289990Y-61269990D02*
X147289990Y-59380010D01*
X147615000Y-61595000D02*
X147289990Y-61269990D01*
X148590000Y-61595000D02*
X147615000Y-61595000D01*
X150749000Y-60239000D02*
X150749000Y-61087000D01*
X149565000Y-59055000D02*
X150749000Y-60239000D01*
X148590000Y-59055000D02*
X149565000Y-59055000D01*
X150749000Y-61087000D02*
X152273000Y-61087000D01*
%TO.N,+5V*%
X152894000Y-54892000D02*
X153044000Y-54742000D01*
X150876000Y-54892000D02*
X152894000Y-54892000D01*
X137160000Y-57912000D02*
X135128000Y-59944000D01*
X155219990Y-65846010D02*
X156042000Y-65024000D01*
X138405248Y-65846010D02*
X155219990Y-65846010D01*
X135128000Y-62568762D02*
X137435119Y-64875881D01*
X135128000Y-59944000D02*
X135128000Y-62568762D01*
X137435119Y-64875881D02*
X138405248Y-65846010D01*
X150876000Y-54864000D02*
X149860000Y-53848000D01*
X150876000Y-54892000D02*
X150876000Y-54864000D01*
X149968990Y-53956990D02*
X149860000Y-53848000D01*
X143284000Y-63221000D02*
X143640000Y-62865000D01*
X143284000Y-64516000D02*
X143284000Y-63221000D01*
X141817500Y-62017500D02*
X140843000Y-61087000D01*
X142665000Y-62865000D02*
X141817500Y-62017500D01*
X143640000Y-62865000D02*
X142665000Y-62865000D01*
X149606000Y-53594000D02*
X149860000Y-53848000D01*
X140716000Y-55372000D02*
X142494000Y-53594000D01*
X140716000Y-58801000D02*
X140716000Y-55372000D01*
X139192000Y-58757000D02*
X140716000Y-58801000D01*
X138005000Y-58757000D02*
X139192000Y-58757000D01*
X137160000Y-57912000D02*
X138005000Y-58757000D01*
X145796000Y-59818232D02*
X145796000Y-53594000D01*
X145288000Y-60326232D02*
X145796000Y-59818232D01*
X145288000Y-62484000D02*
X145288000Y-60326232D01*
X143640000Y-62865000D02*
X144907000Y-62865000D01*
X144907000Y-62865000D02*
X145288000Y-62484000D01*
X145796000Y-53594000D02*
X149606000Y-53594000D01*
X142494000Y-53594000D02*
X145796000Y-53594000D01*
%TO.N,Net-(R4-Pad1)*%
X153631990Y-62725500D02*
X154889490Y-61468000D01*
X153631990Y-63766500D02*
X153631990Y-62725500D01*
X153961500Y-64096010D02*
X153631990Y-63766500D01*
X156019990Y-64096010D02*
X153961500Y-64096010D01*
X156042000Y-64074000D02*
X156019990Y-64096010D01*
X154889490Y-61468000D02*
X155956000Y-61468000D01*
%TO.N,/I2S_BCLK*%
X162527001Y-68993001D02*
X155099001Y-68993001D01*
X162846001Y-68674001D02*
X162527001Y-68993001D01*
X155099001Y-68993001D02*
X153924000Y-67818000D01*
X162846001Y-66388999D02*
X162846001Y-68674001D01*
X164211000Y-65024000D02*
X162846001Y-66388999D01*
%TO.N,/I2S_MCLK*%
X153009012Y-69443012D02*
X151702205Y-68136205D01*
X163534069Y-69443012D02*
X153009012Y-69443012D01*
X164211000Y-68766081D02*
X163534069Y-69443012D01*
X164211000Y-67564000D02*
X164211000Y-68766081D01*
%TO.N,/SPDIF*%
X161671000Y-65024000D02*
X159771000Y-63124000D01*
X159771000Y-63124000D02*
X158242000Y-63124000D01*
%TO.N,Net-(R5-Pad1)*%
X153957000Y-64996000D02*
X153181979Y-64220979D01*
X154432000Y-64996000D02*
X153957000Y-64996000D01*
X148966768Y-62865000D02*
X148590000Y-62865000D01*
X149816778Y-62014990D02*
X148966768Y-62865000D01*
X149565000Y-60325000D02*
X148590000Y-60325000D01*
X149890010Y-60650010D02*
X149565000Y-60325000D01*
X149890010Y-61941758D02*
X149890010Y-60650010D01*
X149816778Y-62014990D02*
X149890010Y-61941758D01*
X152698268Y-61941758D02*
X149890010Y-61941758D01*
X153181979Y-62425469D02*
X152698268Y-61941758D01*
X153181979Y-64220979D02*
X153181979Y-62425469D01*
%TO.N,Net-(C3-Pad2)*%
X156464000Y-56642000D02*
X158750000Y-56642000D01*
%TO.N,Net-(C3-Pad1)*%
X158600000Y-54742000D02*
X158750000Y-54892000D01*
X156464000Y-54742000D02*
X158600000Y-54742000D01*
%TO.N,Net-(R1-Pad2)*%
X151666000Y-58020000D02*
X153044000Y-56642000D01*
X151666000Y-58420000D02*
X151666000Y-58020000D01*
%TO.N,Net-(R3-Pad1)*%
X138407490Y-60452000D02*
X137160000Y-60452000D01*
X139573000Y-61617510D02*
X138407490Y-60452000D01*
X139573000Y-62125510D02*
X139573000Y-61617510D01*
X142763500Y-65316010D02*
X139573000Y-62125510D01*
X145785990Y-65316010D02*
X142763500Y-65316010D01*
X146586000Y-64516000D02*
X145785990Y-65316010D01*
X147094000Y-64516000D02*
X146586000Y-64516000D01*
%TO.N,/SPDIF5V*%
X154554000Y-63124000D02*
X154432000Y-63246000D01*
X156042000Y-63124000D02*
X154554000Y-63124000D01*
%TD*%
D18*
%TO.N,+5V*%
G36*
X154559000Y-53662197D02*
G01*
X154362998Y-53858199D01*
X154356142Y-53863825D01*
X154288180Y-53827498D01*
X154168482Y-53791188D01*
X154044000Y-53778928D01*
X153329750Y-53782000D01*
X153171000Y-53940750D01*
X153171000Y-54615000D01*
X153191000Y-54615000D01*
X153191000Y-54728928D01*
X152897000Y-54728928D01*
X152897000Y-54615000D01*
X152917000Y-54615000D01*
X152917000Y-53940750D01*
X152758250Y-53782000D01*
X152044000Y-53778928D01*
X151919518Y-53791188D01*
X151799820Y-53827498D01*
X151736083Y-53861567D01*
X151705494Y-53836463D01*
X151595180Y-53777498D01*
X151475482Y-53741188D01*
X151351000Y-53728928D01*
X151161750Y-53732000D01*
X151003000Y-53890750D01*
X151003000Y-54765000D01*
X151023000Y-54765000D01*
X151023000Y-55019000D01*
X151003000Y-55019000D01*
X151003000Y-55039000D01*
X150749000Y-55039000D01*
X150749000Y-55019000D01*
X150729000Y-55019000D01*
X150729000Y-54765000D01*
X150749000Y-54765000D01*
X150749000Y-53890750D01*
X150590250Y-53732000D01*
X150401000Y-53728928D01*
X150276518Y-53741188D01*
X150156820Y-53777498D01*
X150046506Y-53836463D01*
X149949815Y-53915815D01*
X149870463Y-54012506D01*
X149811498Y-54122820D01*
X149775188Y-54242518D01*
X149762928Y-54367000D01*
X149763247Y-54391859D01*
X149716582Y-54366916D01*
X149568745Y-54322071D01*
X149415000Y-54306928D01*
X147765000Y-54306928D01*
X147611255Y-54322071D01*
X147463418Y-54366916D01*
X147327171Y-54439742D01*
X147235528Y-54514952D01*
X147154753Y-54539454D01*
X147022724Y-54610026D01*
X146906999Y-54704999D01*
X146883196Y-54734003D01*
X146778993Y-54838206D01*
X146749989Y-54862009D01*
X146705832Y-54915815D01*
X146655016Y-54977734D01*
X146636430Y-55012506D01*
X146584444Y-55109764D01*
X146540987Y-55253025D01*
X146529990Y-55364678D01*
X146529990Y-55364688D01*
X146526314Y-55402010D01*
X146529990Y-55439333D01*
X146529991Y-56574648D01*
X146529990Y-56574658D01*
X146529990Y-57422668D01*
X146526314Y-57459990D01*
X146527324Y-57470246D01*
X146448744Y-57502795D01*
X146279226Y-57616063D01*
X146135063Y-57760226D01*
X146021795Y-57929744D01*
X145943774Y-58118102D01*
X145904000Y-58318061D01*
X145904000Y-58521939D01*
X145943774Y-58721898D01*
X146021795Y-58910256D01*
X146135063Y-59079774D01*
X146279226Y-59223937D01*
X146448744Y-59337205D01*
X146527324Y-59369754D01*
X146526314Y-59380010D01*
X146529991Y-59417342D01*
X146529990Y-61232667D01*
X146526314Y-61269990D01*
X146529990Y-61307312D01*
X146529990Y-61307322D01*
X146540987Y-61418975D01*
X146584285Y-61561711D01*
X146584444Y-61562236D01*
X146655016Y-61694266D01*
X146677756Y-61721974D01*
X146749989Y-61809991D01*
X146778993Y-61833794D01*
X147051196Y-62105997D01*
X147074999Y-62135001D01*
X147091350Y-62148420D01*
X147109742Y-62182829D01*
X147148454Y-62230000D01*
X147109742Y-62277171D01*
X147036916Y-62413418D01*
X146992071Y-62561255D01*
X146988497Y-62597540D01*
X146980937Y-62586226D01*
X146836774Y-62442063D01*
X146667256Y-62328795D01*
X146478898Y-62250774D01*
X146278939Y-62211000D01*
X146075061Y-62211000D01*
X145875102Y-62250774D01*
X145686744Y-62328795D01*
X145517226Y-62442063D01*
X145373063Y-62586226D01*
X145259795Y-62755744D01*
X145250000Y-62779391D01*
X145250000Y-62737998D01*
X145091252Y-62737998D01*
X145250000Y-62579250D01*
X145253072Y-62565000D01*
X145240812Y-62440518D01*
X145204502Y-62320820D01*
X145145537Y-62210506D01*
X145121270Y-62180936D01*
X145138650Y-62148420D01*
X145155001Y-62135001D01*
X145249974Y-62019276D01*
X145320546Y-61887247D01*
X145364003Y-61743986D01*
X145378677Y-61595000D01*
X145364003Y-61446014D01*
X145320546Y-61302753D01*
X145249974Y-61170724D01*
X145155001Y-61054999D01*
X145138650Y-61041580D01*
X145120258Y-61007171D01*
X145081546Y-60960000D01*
X145120258Y-60912829D01*
X145193084Y-60776582D01*
X145237929Y-60628745D01*
X145253072Y-60475000D01*
X145253072Y-60175000D01*
X145237929Y-60021255D01*
X145193084Y-59873418D01*
X145120258Y-59737171D01*
X145081546Y-59690000D01*
X145120258Y-59642829D01*
X145138650Y-59608420D01*
X145155001Y-59595001D01*
X145249974Y-59479276D01*
X145320546Y-59347247D01*
X145364003Y-59203986D01*
X145378677Y-59055000D01*
X145364003Y-58906014D01*
X145320546Y-58762753D01*
X145249974Y-58630724D01*
X145155001Y-58514999D01*
X145138650Y-58501580D01*
X145120258Y-58467171D01*
X145081546Y-58420000D01*
X145120258Y-58372829D01*
X145193084Y-58236582D01*
X145237929Y-58088745D01*
X145253072Y-57935000D01*
X145253072Y-57635000D01*
X145237929Y-57481255D01*
X145193084Y-57333418D01*
X145120258Y-57197171D01*
X145081546Y-57150000D01*
X145120258Y-57102829D01*
X145138650Y-57068420D01*
X145155001Y-57055001D01*
X145249974Y-56939276D01*
X145320546Y-56807247D01*
X145364003Y-56663986D01*
X145378677Y-56515000D01*
X145364003Y-56366014D01*
X145320546Y-56222753D01*
X145249974Y-56090724D01*
X145155001Y-55974999D01*
X145138650Y-55961580D01*
X145120258Y-55927171D01*
X145081546Y-55880000D01*
X145120258Y-55832829D01*
X145193084Y-55696582D01*
X145237929Y-55548745D01*
X145253072Y-55395000D01*
X145253072Y-55095000D01*
X145237929Y-54941255D01*
X145193084Y-54793418D01*
X145120258Y-54657171D01*
X145022251Y-54537749D01*
X144902829Y-54439742D01*
X144766582Y-54366916D01*
X144618745Y-54322071D01*
X144465000Y-54306928D01*
X142815000Y-54306928D01*
X142661255Y-54322071D01*
X142513418Y-54366916D01*
X142377171Y-54439742D01*
X142257749Y-54537749D01*
X142159742Y-54657171D01*
X142086916Y-54793418D01*
X142042071Y-54941255D01*
X142026928Y-55095000D01*
X142026928Y-55395000D01*
X142042071Y-55548745D01*
X142086916Y-55696582D01*
X142159742Y-55832829D01*
X142198454Y-55880000D01*
X142159742Y-55927171D01*
X142086916Y-56063418D01*
X142042071Y-56211255D01*
X142026928Y-56365000D01*
X142026928Y-56496000D01*
X141884061Y-56496000D01*
X141684102Y-56535774D01*
X141495744Y-56613795D01*
X141326226Y-56727063D01*
X141182063Y-56871226D01*
X141068795Y-57040744D01*
X140990774Y-57229102D01*
X140951000Y-57429061D01*
X140951000Y-57632939D01*
X140990774Y-57832898D01*
X141068795Y-58021256D01*
X141182063Y-58190774D01*
X141326226Y-58334937D01*
X141495744Y-58448205D01*
X141579990Y-58483101D01*
X141579990Y-58692667D01*
X141576314Y-58729990D01*
X141579990Y-58767312D01*
X141579990Y-58767322D01*
X141590987Y-58878975D01*
X141624059Y-58988001D01*
X141634444Y-59022236D01*
X141705016Y-59154266D01*
X141740090Y-59197003D01*
X141799989Y-59269991D01*
X141828993Y-59293794D01*
X141889315Y-59354116D01*
X141828988Y-59414443D01*
X141799990Y-59438241D01*
X141776192Y-59467239D01*
X141776191Y-59467240D01*
X141705016Y-59553966D01*
X141634444Y-59685996D01*
X141611632Y-59761201D01*
X141590988Y-59829256D01*
X141579991Y-59940909D01*
X141576314Y-59978242D01*
X141579991Y-60015574D01*
X141579990Y-61232667D01*
X141576314Y-61269990D01*
X141579990Y-61307312D01*
X141579990Y-61307322D01*
X141590987Y-61418975D01*
X141634285Y-61561711D01*
X141634444Y-61562236D01*
X141705016Y-61694266D01*
X141727756Y-61721974D01*
X141799989Y-61809991D01*
X141828993Y-61833794D01*
X142101196Y-62105997D01*
X142124999Y-62135001D01*
X142141350Y-62148420D01*
X142158730Y-62180936D01*
X142134463Y-62210506D01*
X142075498Y-62320820D01*
X142039188Y-62440518D01*
X142026928Y-62565000D01*
X142030000Y-62579250D01*
X142188750Y-62738000D01*
X143513000Y-62738000D01*
X143513000Y-62718000D01*
X143767000Y-62718000D01*
X143767000Y-62738000D01*
X143787000Y-62738000D01*
X143787000Y-62992000D01*
X143767000Y-62992000D01*
X143767000Y-63012000D01*
X143513000Y-63012000D01*
X143513000Y-62992000D01*
X142188750Y-62992000D01*
X142030000Y-63150750D01*
X142026928Y-63165000D01*
X142039188Y-63289482D01*
X142075498Y-63409180D01*
X142134463Y-63519494D01*
X142213815Y-63616185D01*
X142257053Y-63651669D01*
X142228463Y-63686506D01*
X142221613Y-63699321D01*
X140333000Y-61810709D01*
X140333000Y-61654832D01*
X140336676Y-61617509D01*
X140333000Y-61580186D01*
X140333000Y-61580177D01*
X140322003Y-61468524D01*
X140278546Y-61325263D01*
X140275206Y-61319014D01*
X140207974Y-61193233D01*
X140136799Y-61106507D01*
X140113001Y-61077509D01*
X140084003Y-61053711D01*
X138971294Y-59941003D01*
X138947491Y-59911999D01*
X138831766Y-59817026D01*
X138699737Y-59746454D01*
X138556476Y-59702997D01*
X138444823Y-59692000D01*
X138444812Y-59692000D01*
X138407490Y-59688324D01*
X138370168Y-59692000D01*
X138332341Y-59692000D01*
X138245120Y-59561465D01*
X138050535Y-59366880D01*
X137821727Y-59213995D01*
X137734832Y-59178002D01*
X137874994Y-59112169D01*
X138095397Y-58949620D01*
X138279853Y-58747196D01*
X138421274Y-58512675D01*
X138514225Y-58255071D01*
X138392470Y-58039000D01*
X137287000Y-58039000D01*
X137287000Y-58059000D01*
X137033000Y-58059000D01*
X137033000Y-58039000D01*
X135927530Y-58039000D01*
X135805775Y-58255071D01*
X135898726Y-58512675D01*
X136040147Y-58747196D01*
X136224603Y-58949620D01*
X136445006Y-59112169D01*
X136585168Y-59178002D01*
X136498273Y-59213995D01*
X136269465Y-59366880D01*
X136074880Y-59561465D01*
X135921995Y-59790273D01*
X135816686Y-60044510D01*
X135763000Y-60314408D01*
X135763000Y-60589592D01*
X135816686Y-60859490D01*
X135921995Y-61113727D01*
X136074880Y-61342535D01*
X136269465Y-61537120D01*
X136498273Y-61690005D01*
X136575515Y-61722000D01*
X136498273Y-61753995D01*
X136269465Y-61906880D01*
X136074880Y-62101465D01*
X135921995Y-62330273D01*
X135816686Y-62584510D01*
X135763000Y-62854408D01*
X135763000Y-63129592D01*
X135816686Y-63399490D01*
X135921995Y-63653727D01*
X136074880Y-63882535D01*
X136269465Y-64077120D01*
X136498273Y-64230005D01*
X136752510Y-64335314D01*
X137022408Y-64389000D01*
X137297592Y-64389000D01*
X137567490Y-64335314D01*
X137821727Y-64230005D01*
X138050535Y-64077120D01*
X138245120Y-63882535D01*
X138398005Y-63653727D01*
X138503314Y-63399490D01*
X138557000Y-63129592D01*
X138557000Y-62854408D01*
X138503314Y-62584510D01*
X138398005Y-62330273D01*
X138245120Y-62101465D01*
X138050535Y-61906880D01*
X137821727Y-61753995D01*
X137744485Y-61722000D01*
X137821727Y-61690005D01*
X138050535Y-61537120D01*
X138234172Y-61353483D01*
X138813000Y-61932312D01*
X138813000Y-62088188D01*
X138809324Y-62125510D01*
X138813000Y-62162832D01*
X138813000Y-62162842D01*
X138823997Y-62274495D01*
X138854484Y-62374998D01*
X138867454Y-62417756D01*
X138938026Y-62549786D01*
X138962207Y-62579250D01*
X139032999Y-62665511D01*
X139062003Y-62689314D01*
X142199701Y-65827013D01*
X142223499Y-65856011D01*
X142339224Y-65950984D01*
X142471253Y-66021556D01*
X142532056Y-66040000D01*
X141478000Y-66040000D01*
X141453224Y-66042440D01*
X141429399Y-66049667D01*
X141407443Y-66061403D01*
X141388197Y-66077197D01*
X141372403Y-66096443D01*
X141360667Y-66118399D01*
X141353440Y-66142224D01*
X141351000Y-66167000D01*
X141351000Y-69190000D01*
X134366000Y-69190000D01*
X134366000Y-65844893D01*
X134377000Y-65789592D01*
X134377000Y-65514408D01*
X134366000Y-65459107D01*
X134366000Y-57568929D01*
X135805775Y-57568929D01*
X135927530Y-57785000D01*
X137033000Y-57785000D01*
X137033000Y-56680280D01*
X137287000Y-56680280D01*
X137287000Y-57785000D01*
X138392470Y-57785000D01*
X138514225Y-57568929D01*
X138421274Y-57311325D01*
X138279853Y-57076804D01*
X138095397Y-56874380D01*
X137874994Y-56711831D01*
X137627114Y-56595404D01*
X137503070Y-56557780D01*
X137287000Y-56680280D01*
X137033000Y-56680280D01*
X136816930Y-56557780D01*
X136692886Y-56595404D01*
X136445006Y-56711831D01*
X136224603Y-56874380D01*
X136040147Y-57076804D01*
X135898726Y-57311325D01*
X135805775Y-57568929D01*
X134366000Y-57568929D01*
X134366000Y-55444893D01*
X134377000Y-55389592D01*
X134377000Y-55114408D01*
X134366000Y-55059107D01*
X134366000Y-53492000D01*
X154559000Y-53492000D01*
X154559000Y-53662197D01*
G37*
X154559000Y-53662197D02*
X154362998Y-53858199D01*
X154356142Y-53863825D01*
X154288180Y-53827498D01*
X154168482Y-53791188D01*
X154044000Y-53778928D01*
X153329750Y-53782000D01*
X153171000Y-53940750D01*
X153171000Y-54615000D01*
X153191000Y-54615000D01*
X153191000Y-54728928D01*
X152897000Y-54728928D01*
X152897000Y-54615000D01*
X152917000Y-54615000D01*
X152917000Y-53940750D01*
X152758250Y-53782000D01*
X152044000Y-53778928D01*
X151919518Y-53791188D01*
X151799820Y-53827498D01*
X151736083Y-53861567D01*
X151705494Y-53836463D01*
X151595180Y-53777498D01*
X151475482Y-53741188D01*
X151351000Y-53728928D01*
X151161750Y-53732000D01*
X151003000Y-53890750D01*
X151003000Y-54765000D01*
X151023000Y-54765000D01*
X151023000Y-55019000D01*
X151003000Y-55019000D01*
X151003000Y-55039000D01*
X150749000Y-55039000D01*
X150749000Y-55019000D01*
X150729000Y-55019000D01*
X150729000Y-54765000D01*
X150749000Y-54765000D01*
X150749000Y-53890750D01*
X150590250Y-53732000D01*
X150401000Y-53728928D01*
X150276518Y-53741188D01*
X150156820Y-53777498D01*
X150046506Y-53836463D01*
X149949815Y-53915815D01*
X149870463Y-54012506D01*
X149811498Y-54122820D01*
X149775188Y-54242518D01*
X149762928Y-54367000D01*
X149763247Y-54391859D01*
X149716582Y-54366916D01*
X149568745Y-54322071D01*
X149415000Y-54306928D01*
X147765000Y-54306928D01*
X147611255Y-54322071D01*
X147463418Y-54366916D01*
X147327171Y-54439742D01*
X147235528Y-54514952D01*
X147154753Y-54539454D01*
X147022724Y-54610026D01*
X146906999Y-54704999D01*
X146883196Y-54734003D01*
X146778993Y-54838206D01*
X146749989Y-54862009D01*
X146705832Y-54915815D01*
X146655016Y-54977734D01*
X146636430Y-55012506D01*
X146584444Y-55109764D01*
X146540987Y-55253025D01*
X146529990Y-55364678D01*
X146529990Y-55364688D01*
X146526314Y-55402010D01*
X146529990Y-55439333D01*
X146529991Y-56574648D01*
X146529990Y-56574658D01*
X146529990Y-57422668D01*
X146526314Y-57459990D01*
X146527324Y-57470246D01*
X146448744Y-57502795D01*
X146279226Y-57616063D01*
X146135063Y-57760226D01*
X146021795Y-57929744D01*
X145943774Y-58118102D01*
X145904000Y-58318061D01*
X145904000Y-58521939D01*
X145943774Y-58721898D01*
X146021795Y-58910256D01*
X146135063Y-59079774D01*
X146279226Y-59223937D01*
X146448744Y-59337205D01*
X146527324Y-59369754D01*
X146526314Y-59380010D01*
X146529991Y-59417342D01*
X146529990Y-61232667D01*
X146526314Y-61269990D01*
X146529990Y-61307312D01*
X146529990Y-61307322D01*
X146540987Y-61418975D01*
X146584285Y-61561711D01*
X146584444Y-61562236D01*
X146655016Y-61694266D01*
X146677756Y-61721974D01*
X146749989Y-61809991D01*
X146778993Y-61833794D01*
X147051196Y-62105997D01*
X147074999Y-62135001D01*
X147091350Y-62148420D01*
X147109742Y-62182829D01*
X147148454Y-62230000D01*
X147109742Y-62277171D01*
X147036916Y-62413418D01*
X146992071Y-62561255D01*
X146988497Y-62597540D01*
X146980937Y-62586226D01*
X146836774Y-62442063D01*
X146667256Y-62328795D01*
X146478898Y-62250774D01*
X146278939Y-62211000D01*
X146075061Y-62211000D01*
X145875102Y-62250774D01*
X145686744Y-62328795D01*
X145517226Y-62442063D01*
X145373063Y-62586226D01*
X145259795Y-62755744D01*
X145250000Y-62779391D01*
X145250000Y-62737998D01*
X145091252Y-62737998D01*
X145250000Y-62579250D01*
X145253072Y-62565000D01*
X145240812Y-62440518D01*
X145204502Y-62320820D01*
X145145537Y-62210506D01*
X145121270Y-62180936D01*
X145138650Y-62148420D01*
X145155001Y-62135001D01*
X145249974Y-62019276D01*
X145320546Y-61887247D01*
X145364003Y-61743986D01*
X145378677Y-61595000D01*
X145364003Y-61446014D01*
X145320546Y-61302753D01*
X145249974Y-61170724D01*
X145155001Y-61054999D01*
X145138650Y-61041580D01*
X145120258Y-61007171D01*
X145081546Y-60960000D01*
X145120258Y-60912829D01*
X145193084Y-60776582D01*
X145237929Y-60628745D01*
X145253072Y-60475000D01*
X145253072Y-60175000D01*
X145237929Y-60021255D01*
X145193084Y-59873418D01*
X145120258Y-59737171D01*
X145081546Y-59690000D01*
X145120258Y-59642829D01*
X145138650Y-59608420D01*
X145155001Y-59595001D01*
X145249974Y-59479276D01*
X145320546Y-59347247D01*
X145364003Y-59203986D01*
X145378677Y-59055000D01*
X145364003Y-58906014D01*
X145320546Y-58762753D01*
X145249974Y-58630724D01*
X145155001Y-58514999D01*
X145138650Y-58501580D01*
X145120258Y-58467171D01*
X145081546Y-58420000D01*
X145120258Y-58372829D01*
X145193084Y-58236582D01*
X145237929Y-58088745D01*
X145253072Y-57935000D01*
X145253072Y-57635000D01*
X145237929Y-57481255D01*
X145193084Y-57333418D01*
X145120258Y-57197171D01*
X145081546Y-57150000D01*
X145120258Y-57102829D01*
X145138650Y-57068420D01*
X145155001Y-57055001D01*
X145249974Y-56939276D01*
X145320546Y-56807247D01*
X145364003Y-56663986D01*
X145378677Y-56515000D01*
X145364003Y-56366014D01*
X145320546Y-56222753D01*
X145249974Y-56090724D01*
X145155001Y-55974999D01*
X145138650Y-55961580D01*
X145120258Y-55927171D01*
X145081546Y-55880000D01*
X145120258Y-55832829D01*
X145193084Y-55696582D01*
X145237929Y-55548745D01*
X145253072Y-55395000D01*
X145253072Y-55095000D01*
X145237929Y-54941255D01*
X145193084Y-54793418D01*
X145120258Y-54657171D01*
X145022251Y-54537749D01*
X144902829Y-54439742D01*
X144766582Y-54366916D01*
X144618745Y-54322071D01*
X144465000Y-54306928D01*
X142815000Y-54306928D01*
X142661255Y-54322071D01*
X142513418Y-54366916D01*
X142377171Y-54439742D01*
X142257749Y-54537749D01*
X142159742Y-54657171D01*
X142086916Y-54793418D01*
X142042071Y-54941255D01*
X142026928Y-55095000D01*
X142026928Y-55395000D01*
X142042071Y-55548745D01*
X142086916Y-55696582D01*
X142159742Y-55832829D01*
X142198454Y-55880000D01*
X142159742Y-55927171D01*
X142086916Y-56063418D01*
X142042071Y-56211255D01*
X142026928Y-56365000D01*
X142026928Y-56496000D01*
X141884061Y-56496000D01*
X141684102Y-56535774D01*
X141495744Y-56613795D01*
X141326226Y-56727063D01*
X141182063Y-56871226D01*
X141068795Y-57040744D01*
X140990774Y-57229102D01*
X140951000Y-57429061D01*
X140951000Y-57632939D01*
X140990774Y-57832898D01*
X141068795Y-58021256D01*
X141182063Y-58190774D01*
X141326226Y-58334937D01*
X141495744Y-58448205D01*
X141579990Y-58483101D01*
X141579990Y-58692667D01*
X141576314Y-58729990D01*
X141579990Y-58767312D01*
X141579990Y-58767322D01*
X141590987Y-58878975D01*
X141624059Y-58988001D01*
X141634444Y-59022236D01*
X141705016Y-59154266D01*
X141740090Y-59197003D01*
X141799989Y-59269991D01*
X141828993Y-59293794D01*
X141889315Y-59354116D01*
X141828988Y-59414443D01*
X141799990Y-59438241D01*
X141776192Y-59467239D01*
X141776191Y-59467240D01*
X141705016Y-59553966D01*
X141634444Y-59685996D01*
X141611632Y-59761201D01*
X141590988Y-59829256D01*
X141579991Y-59940909D01*
X141576314Y-59978242D01*
X141579991Y-60015574D01*
X141579990Y-61232667D01*
X141576314Y-61269990D01*
X141579990Y-61307312D01*
X141579990Y-61307322D01*
X141590987Y-61418975D01*
X141634285Y-61561711D01*
X141634444Y-61562236D01*
X141705016Y-61694266D01*
X141727756Y-61721974D01*
X141799989Y-61809991D01*
X141828993Y-61833794D01*
X142101196Y-62105997D01*
X142124999Y-62135001D01*
X142141350Y-62148420D01*
X142158730Y-62180936D01*
X142134463Y-62210506D01*
X142075498Y-62320820D01*
X142039188Y-62440518D01*
X142026928Y-62565000D01*
X142030000Y-62579250D01*
X142188750Y-62738000D01*
X143513000Y-62738000D01*
X143513000Y-62718000D01*
X143767000Y-62718000D01*
X143767000Y-62738000D01*
X143787000Y-62738000D01*
X143787000Y-62992000D01*
X143767000Y-62992000D01*
X143767000Y-63012000D01*
X143513000Y-63012000D01*
X143513000Y-62992000D01*
X142188750Y-62992000D01*
X142030000Y-63150750D01*
X142026928Y-63165000D01*
X142039188Y-63289482D01*
X142075498Y-63409180D01*
X142134463Y-63519494D01*
X142213815Y-63616185D01*
X142257053Y-63651669D01*
X142228463Y-63686506D01*
X142221613Y-63699321D01*
X140333000Y-61810709D01*
X140333000Y-61654832D01*
X140336676Y-61617509D01*
X140333000Y-61580186D01*
X140333000Y-61580177D01*
X140322003Y-61468524D01*
X140278546Y-61325263D01*
X140275206Y-61319014D01*
X140207974Y-61193233D01*
X140136799Y-61106507D01*
X140113001Y-61077509D01*
X140084003Y-61053711D01*
X138971294Y-59941003D01*
X138947491Y-59911999D01*
X138831766Y-59817026D01*
X138699737Y-59746454D01*
X138556476Y-59702997D01*
X138444823Y-59692000D01*
X138444812Y-59692000D01*
X138407490Y-59688324D01*
X138370168Y-59692000D01*
X138332341Y-59692000D01*
X138245120Y-59561465D01*
X138050535Y-59366880D01*
X137821727Y-59213995D01*
X137734832Y-59178002D01*
X137874994Y-59112169D01*
X138095397Y-58949620D01*
X138279853Y-58747196D01*
X138421274Y-58512675D01*
X138514225Y-58255071D01*
X138392470Y-58039000D01*
X137287000Y-58039000D01*
X137287000Y-58059000D01*
X137033000Y-58059000D01*
X137033000Y-58039000D01*
X135927530Y-58039000D01*
X135805775Y-58255071D01*
X135898726Y-58512675D01*
X136040147Y-58747196D01*
X136224603Y-58949620D01*
X136445006Y-59112169D01*
X136585168Y-59178002D01*
X136498273Y-59213995D01*
X136269465Y-59366880D01*
X136074880Y-59561465D01*
X135921995Y-59790273D01*
X135816686Y-60044510D01*
X135763000Y-60314408D01*
X135763000Y-60589592D01*
X135816686Y-60859490D01*
X135921995Y-61113727D01*
X136074880Y-61342535D01*
X136269465Y-61537120D01*
X136498273Y-61690005D01*
X136575515Y-61722000D01*
X136498273Y-61753995D01*
X136269465Y-61906880D01*
X136074880Y-62101465D01*
X135921995Y-62330273D01*
X135816686Y-62584510D01*
X135763000Y-62854408D01*
X135763000Y-63129592D01*
X135816686Y-63399490D01*
X135921995Y-63653727D01*
X136074880Y-63882535D01*
X136269465Y-64077120D01*
X136498273Y-64230005D01*
X136752510Y-64335314D01*
X137022408Y-64389000D01*
X137297592Y-64389000D01*
X137567490Y-64335314D01*
X137821727Y-64230005D01*
X138050535Y-64077120D01*
X138245120Y-63882535D01*
X138398005Y-63653727D01*
X138503314Y-63399490D01*
X138557000Y-63129592D01*
X138557000Y-62854408D01*
X138503314Y-62584510D01*
X138398005Y-62330273D01*
X138245120Y-62101465D01*
X138050535Y-61906880D01*
X137821727Y-61753995D01*
X137744485Y-61722000D01*
X137821727Y-61690005D01*
X138050535Y-61537120D01*
X138234172Y-61353483D01*
X138813000Y-61932312D01*
X138813000Y-62088188D01*
X138809324Y-62125510D01*
X138813000Y-62162832D01*
X138813000Y-62162842D01*
X138823997Y-62274495D01*
X138854484Y-62374998D01*
X138867454Y-62417756D01*
X138938026Y-62549786D01*
X138962207Y-62579250D01*
X139032999Y-62665511D01*
X139062003Y-62689314D01*
X142199701Y-65827013D01*
X142223499Y-65856011D01*
X142339224Y-65950984D01*
X142471253Y-66021556D01*
X142532056Y-66040000D01*
X141478000Y-66040000D01*
X141453224Y-66042440D01*
X141429399Y-66049667D01*
X141407443Y-66061403D01*
X141388197Y-66077197D01*
X141372403Y-66096443D01*
X141360667Y-66118399D01*
X141353440Y-66142224D01*
X141351000Y-66167000D01*
X141351000Y-69190000D01*
X134366000Y-69190000D01*
X134366000Y-65844893D01*
X134377000Y-65789592D01*
X134377000Y-65514408D01*
X134366000Y-65459107D01*
X134366000Y-57568929D01*
X135805775Y-57568929D01*
X135927530Y-57785000D01*
X137033000Y-57785000D01*
X137033000Y-56680280D01*
X137287000Y-56680280D01*
X137287000Y-57785000D01*
X138392470Y-57785000D01*
X138514225Y-57568929D01*
X138421274Y-57311325D01*
X138279853Y-57076804D01*
X138095397Y-56874380D01*
X137874994Y-56711831D01*
X137627114Y-56595404D01*
X137503070Y-56557780D01*
X137287000Y-56680280D01*
X137033000Y-56680280D01*
X136816930Y-56557780D01*
X136692886Y-56595404D01*
X136445006Y-56711831D01*
X136224603Y-56874380D01*
X136040147Y-57076804D01*
X135898726Y-57311325D01*
X135805775Y-57568929D01*
X134366000Y-57568929D01*
X134366000Y-55444893D01*
X134377000Y-55389592D01*
X134377000Y-55114408D01*
X134366000Y-55059107D01*
X134366000Y-53492000D01*
X154559000Y-53492000D01*
X154559000Y-53662197D01*
G36*
X156189000Y-65151000D02*
G01*
X156169000Y-65151000D01*
X156169000Y-65825250D01*
X156327750Y-65984000D01*
X156572000Y-65987072D01*
X156696482Y-65974812D01*
X156718000Y-65968285D01*
X156718000Y-66040000D01*
X155102644Y-66040000D01*
X155155942Y-66011512D01*
X155253943Y-65931084D01*
X155267820Y-65938502D01*
X155387518Y-65974812D01*
X155512000Y-65987072D01*
X155756250Y-65984000D01*
X155915000Y-65825250D01*
X155915000Y-65151000D01*
X155895000Y-65151000D01*
X155895000Y-65037072D01*
X156189000Y-65037072D01*
X156189000Y-65151000D01*
G37*
X156189000Y-65151000D02*
X156169000Y-65151000D01*
X156169000Y-65825250D01*
X156327750Y-65984000D01*
X156572000Y-65987072D01*
X156696482Y-65974812D01*
X156718000Y-65968285D01*
X156718000Y-66040000D01*
X155102644Y-66040000D01*
X155155942Y-66011512D01*
X155253943Y-65931084D01*
X155267820Y-65938502D01*
X155387518Y-65974812D01*
X155512000Y-65987072D01*
X155756250Y-65984000D01*
X155915000Y-65825250D01*
X155915000Y-65151000D01*
X155895000Y-65151000D01*
X155895000Y-65037072D01*
X156189000Y-65037072D01*
X156189000Y-65151000D01*
G36*
X143411000Y-64389000D02*
G01*
X143431000Y-64389000D01*
X143431000Y-64556010D01*
X143137000Y-64556010D01*
X143137000Y-64389000D01*
X143157000Y-64389000D01*
X143157000Y-64369000D01*
X143411000Y-64369000D01*
X143411000Y-64389000D01*
G37*
X143411000Y-64389000D02*
X143431000Y-64389000D01*
X143431000Y-64556010D01*
X143137000Y-64556010D01*
X143137000Y-64389000D01*
X143157000Y-64389000D01*
X143157000Y-64369000D01*
X143411000Y-64369000D01*
X143411000Y-64389000D01*
%TD*%
M02*
