%TF.GenerationSoftware,KiCad,Pcbnew,5.1.6-c6e7f7d~86~ubuntu18.04.1*%
%TF.CreationDate,2021-01-06T00:21:07-08:00*%
%TF.ProjectId,pmod_spdif,706d6f64-5f73-4706-9469-662e6b696361,rev?*%
%TF.SameCoordinates,Original*%
%TF.FileFunction,Legend,Top*%
%TF.FilePolarity,Positive*%
%FSLAX46Y46*%
G04 Gerber Fmt 4.6, Leading zero omitted, Abs format (unit mm)*
G04 Created by KiCad (PCBNEW 5.1.6-c6e7f7d~86~ubuntu18.04.1) date 2021-01-06 00:21:07*
%MOMM*%
%LPD*%
G01*
G04 APERTURE LIST*
%ADD10C,0.120000*%
%ADD11C,0.150000*%
G04 APERTURE END LIST*
D10*
%TO.C,C6*%
X158621000Y-60421733D02*
X158621000Y-60764267D01*
X159641000Y-60421733D02*
X159641000Y-60764267D01*
%TO.C,U2*%
X155634000Y-54182000D02*
X153204000Y-54182000D01*
X153874000Y-57252000D02*
X155634000Y-57252000D01*
%TO.C,J2*%
X157794000Y-69148000D02*
X157794000Y-66488000D01*
X145034000Y-69148000D02*
X157794000Y-69148000D01*
X145034000Y-66488000D02*
X157794000Y-66488000D01*
X145034000Y-69148000D02*
X145034000Y-66488000D01*
X143764000Y-69148000D02*
X142434000Y-69148000D01*
X142434000Y-69148000D02*
X142434000Y-67818000D01*
%TO.C,U4*%
X156242000Y-65684000D02*
X158692000Y-65684000D01*
X158042000Y-62464000D02*
X156242000Y-62464000D01*
%TO.C,R5*%
X154942000Y-64292267D02*
X154942000Y-63949733D01*
X153922000Y-64292267D02*
X153922000Y-63949733D01*
%TO.C,R4*%
X156278733Y-61978000D02*
X156621267Y-61978000D01*
X156278733Y-60958000D02*
X156621267Y-60958000D01*
%TO.C,J1*%
X160341000Y-69021000D02*
X161671000Y-69021000D01*
X160341000Y-67691000D02*
X160341000Y-69021000D01*
X162941000Y-69021000D02*
X165541000Y-69021000D01*
X162941000Y-66421000D02*
X162941000Y-69021000D01*
X160341000Y-66421000D02*
X162941000Y-66421000D01*
X165541000Y-69021000D02*
X165541000Y-53661000D01*
X160341000Y-66421000D02*
X160341000Y-53661000D01*
X160341000Y-53661000D02*
X165541000Y-53661000D01*
%TO.C,C5*%
X143987733Y-65026000D02*
X144330267Y-65026000D01*
X143987733Y-64006000D02*
X144330267Y-64006000D01*
%TO.C,U1*%
X146115000Y-63490000D02*
X149565000Y-63490000D01*
X146115000Y-63490000D02*
X144165000Y-63490000D01*
X146115000Y-54620000D02*
X148065000Y-54620000D01*
X146115000Y-54620000D02*
X144165000Y-54620000D01*
%TO.C,R3*%
X147797733Y-65026000D02*
X148140267Y-65026000D01*
X147797733Y-64006000D02*
X148140267Y-64006000D01*
%TO.C,R2*%
X151259000Y-62133267D02*
X151259000Y-61790733D01*
X150239000Y-62133267D02*
X150239000Y-61790733D01*
%TO.C,R1*%
X152712267Y-57910000D02*
X152369733Y-57910000D01*
X152712267Y-58930000D02*
X152369733Y-58930000D01*
%TO.C,C4*%
X150366000Y-55595733D02*
X150366000Y-55938267D01*
X151386000Y-55595733D02*
X151386000Y-55938267D01*
%TO.C,C3*%
X158240000Y-55341733D02*
X158240000Y-55684267D01*
X159260000Y-55341733D02*
X159260000Y-55684267D01*
%TO.C,C2*%
X151763000Y-61790733D02*
X151763000Y-62133267D01*
X152783000Y-61790733D02*
X152783000Y-62133267D01*
%TO.C,C1*%
X156014267Y-57910000D02*
X155671733Y-57910000D01*
X156014267Y-58930000D02*
X155671733Y-58930000D01*
%TO.C,C6*%
D11*
X157440333Y-60428142D02*
X157392714Y-60475761D01*
X157249857Y-60523380D01*
X157154619Y-60523380D01*
X157011761Y-60475761D01*
X156916523Y-60380523D01*
X156868904Y-60285285D01*
X156821285Y-60094809D01*
X156821285Y-59951952D01*
X156868904Y-59761476D01*
X156916523Y-59666238D01*
X157011761Y-59571000D01*
X157154619Y-59523380D01*
X157249857Y-59523380D01*
X157392714Y-59571000D01*
X157440333Y-59618619D01*
X158297476Y-59523380D02*
X158107000Y-59523380D01*
X158011761Y-59571000D01*
X157964142Y-59618619D01*
X157868904Y-59761476D01*
X157821285Y-59951952D01*
X157821285Y-60332904D01*
X157868904Y-60428142D01*
X157916523Y-60475761D01*
X158011761Y-60523380D01*
X158202238Y-60523380D01*
X158297476Y-60475761D01*
X158345095Y-60428142D01*
X158392714Y-60332904D01*
X158392714Y-60094809D01*
X158345095Y-59999571D01*
X158297476Y-59951952D01*
X158202238Y-59904333D01*
X158011761Y-59904333D01*
X157916523Y-59951952D01*
X157868904Y-59999571D01*
X157821285Y-60094809D01*
%TO.C,U3*%
X132032380Y-61213904D02*
X132841904Y-61213904D01*
X132937142Y-61166285D01*
X132984761Y-61118666D01*
X133032380Y-61023428D01*
X133032380Y-60832952D01*
X132984761Y-60737714D01*
X132937142Y-60690095D01*
X132841904Y-60642476D01*
X132032380Y-60642476D01*
X132032380Y-60261523D02*
X132032380Y-59642476D01*
X132413333Y-59975809D01*
X132413333Y-59832952D01*
X132460952Y-59737714D01*
X132508571Y-59690095D01*
X132603809Y-59642476D01*
X132841904Y-59642476D01*
X132937142Y-59690095D01*
X132984761Y-59737714D01*
X133032380Y-59832952D01*
X133032380Y-60118666D01*
X132984761Y-60213904D01*
X132937142Y-60261523D01*
%TO.C,U2*%
X151384095Y-53300380D02*
X151384095Y-54109904D01*
X151431714Y-54205142D01*
X151479333Y-54252761D01*
X151574571Y-54300380D01*
X151765047Y-54300380D01*
X151860285Y-54252761D01*
X151907904Y-54205142D01*
X151955523Y-54109904D01*
X151955523Y-53300380D01*
X152384095Y-53395619D02*
X152431714Y-53348000D01*
X152526952Y-53300380D01*
X152765047Y-53300380D01*
X152860285Y-53348000D01*
X152907904Y-53395619D01*
X152955523Y-53490857D01*
X152955523Y-53586095D01*
X152907904Y-53728952D01*
X152336476Y-54300380D01*
X152955523Y-54300380D01*
%TO.C,J2*%
X140886380Y-68151333D02*
X141600666Y-68151333D01*
X141743523Y-68198952D01*
X141838761Y-68294190D01*
X141886380Y-68437047D01*
X141886380Y-68532285D01*
X140981619Y-67722761D02*
X140934000Y-67675142D01*
X140886380Y-67579904D01*
X140886380Y-67341809D01*
X140934000Y-67246571D01*
X140981619Y-67198952D01*
X141076857Y-67151333D01*
X141172095Y-67151333D01*
X141314952Y-67198952D01*
X141886380Y-67770380D01*
X141886380Y-67151333D01*
%TO.C,U4*%
X158456380Y-67563904D02*
X159265904Y-67563904D01*
X159361142Y-67516285D01*
X159408761Y-67468666D01*
X159456380Y-67373428D01*
X159456380Y-67182952D01*
X159408761Y-67087714D01*
X159361142Y-67040095D01*
X159265904Y-66992476D01*
X158456380Y-66992476D01*
X158789714Y-66087714D02*
X159456380Y-66087714D01*
X158408761Y-66325809D02*
X159123047Y-66563904D01*
X159123047Y-65944857D01*
%TO.C,R5*%
X153741380Y-64809666D02*
X153265190Y-65143000D01*
X153741380Y-65381095D02*
X152741380Y-65381095D01*
X152741380Y-65000142D01*
X152789000Y-64904904D01*
X152836619Y-64857285D01*
X152931857Y-64809666D01*
X153074714Y-64809666D01*
X153169952Y-64857285D01*
X153217571Y-64904904D01*
X153265190Y-65000142D01*
X153265190Y-65381095D01*
X152741380Y-63904904D02*
X152741380Y-64381095D01*
X153217571Y-64428714D01*
X153169952Y-64381095D01*
X153122333Y-64285857D01*
X153122333Y-64047761D01*
X153169952Y-63952523D01*
X153217571Y-63904904D01*
X153312809Y-63857285D01*
X153550904Y-63857285D01*
X153646142Y-63904904D01*
X153693761Y-63952523D01*
X153741380Y-64047761D01*
X153741380Y-64285857D01*
X153693761Y-64381095D01*
X153646142Y-64428714D01*
%TO.C,R4*%
X155281333Y-60904380D02*
X154948000Y-60428190D01*
X154709904Y-60904380D02*
X154709904Y-59904380D01*
X155090857Y-59904380D01*
X155186095Y-59952000D01*
X155233714Y-59999619D01*
X155281333Y-60094857D01*
X155281333Y-60237714D01*
X155233714Y-60332952D01*
X155186095Y-60380571D01*
X155090857Y-60428190D01*
X154709904Y-60428190D01*
X156138476Y-60237714D02*
X156138476Y-60904380D01*
X155900380Y-59856761D02*
X155662285Y-60571047D01*
X156281333Y-60571047D01*
%TO.C,J1*%
X162607666Y-69346380D02*
X162607666Y-70060666D01*
X162560047Y-70203523D01*
X162464809Y-70298761D01*
X162321952Y-70346380D01*
X162226714Y-70346380D01*
X163607666Y-70346380D02*
X163036238Y-70346380D01*
X163321952Y-70346380D02*
X163321952Y-69346380D01*
X163226714Y-69489238D01*
X163131476Y-69584476D01*
X163036238Y-69632095D01*
%TO.C,C5*%
X144105333Y-66397142D02*
X144057714Y-66444761D01*
X143914857Y-66492380D01*
X143819619Y-66492380D01*
X143676761Y-66444761D01*
X143581523Y-66349523D01*
X143533904Y-66254285D01*
X143486285Y-66063809D01*
X143486285Y-65920952D01*
X143533904Y-65730476D01*
X143581523Y-65635238D01*
X143676761Y-65540000D01*
X143819619Y-65492380D01*
X143914857Y-65492380D01*
X144057714Y-65540000D01*
X144105333Y-65587619D01*
X145010095Y-65492380D02*
X144533904Y-65492380D01*
X144486285Y-65968571D01*
X144533904Y-65920952D01*
X144629142Y-65873333D01*
X144867238Y-65873333D01*
X144962476Y-65920952D01*
X145010095Y-65968571D01*
X145057714Y-66063809D01*
X145057714Y-66301904D01*
X145010095Y-66397142D01*
X144962476Y-66444761D01*
X144867238Y-66492380D01*
X144629142Y-66492380D01*
X144533904Y-66444761D01*
X144486285Y-66397142D01*
%TO.C,U1*%
X145502380Y-60324904D02*
X146311904Y-60324904D01*
X146407142Y-60277285D01*
X146454761Y-60229666D01*
X146502380Y-60134428D01*
X146502380Y-59943952D01*
X146454761Y-59848714D01*
X146407142Y-59801095D01*
X146311904Y-59753476D01*
X145502380Y-59753476D01*
X146502380Y-58753476D02*
X146502380Y-59324904D01*
X146502380Y-59039190D02*
X145502380Y-59039190D01*
X145645238Y-59134428D01*
X145740476Y-59229666D01*
X145788095Y-59324904D01*
%TO.C,R3*%
X147802333Y-66238380D02*
X147469000Y-65762190D01*
X147230904Y-66238380D02*
X147230904Y-65238380D01*
X147611857Y-65238380D01*
X147707095Y-65286000D01*
X147754714Y-65333619D01*
X147802333Y-65428857D01*
X147802333Y-65571714D01*
X147754714Y-65666952D01*
X147707095Y-65714571D01*
X147611857Y-65762190D01*
X147230904Y-65762190D01*
X148135666Y-65238380D02*
X148754714Y-65238380D01*
X148421380Y-65619333D01*
X148564238Y-65619333D01*
X148659476Y-65666952D01*
X148707095Y-65714571D01*
X148754714Y-65809809D01*
X148754714Y-66047904D01*
X148707095Y-66143142D01*
X148659476Y-66190761D01*
X148564238Y-66238380D01*
X148278523Y-66238380D01*
X148183285Y-66190761D01*
X148135666Y-66143142D01*
%TO.C,R2*%
X151201380Y-64809666D02*
X150725190Y-65143000D01*
X151201380Y-65381095D02*
X150201380Y-65381095D01*
X150201380Y-65000142D01*
X150249000Y-64904904D01*
X150296619Y-64857285D01*
X150391857Y-64809666D01*
X150534714Y-64809666D01*
X150629952Y-64857285D01*
X150677571Y-64904904D01*
X150725190Y-65000142D01*
X150725190Y-65381095D01*
X150296619Y-64428714D02*
X150249000Y-64381095D01*
X150201380Y-64285857D01*
X150201380Y-64047761D01*
X150249000Y-63952523D01*
X150296619Y-63904904D01*
X150391857Y-63857285D01*
X150487095Y-63857285D01*
X150629952Y-63904904D01*
X151201380Y-64476333D01*
X151201380Y-63857285D01*
%TO.C,R1*%
X150328333Y-58999380D02*
X149995000Y-58523190D01*
X149756904Y-58999380D02*
X149756904Y-57999380D01*
X150137857Y-57999380D01*
X150233095Y-58047000D01*
X150280714Y-58094619D01*
X150328333Y-58189857D01*
X150328333Y-58332714D01*
X150280714Y-58427952D01*
X150233095Y-58475571D01*
X150137857Y-58523190D01*
X149756904Y-58523190D01*
X151280714Y-58999380D02*
X150709285Y-58999380D01*
X150995000Y-58999380D02*
X150995000Y-57999380D01*
X150899761Y-58142238D01*
X150804523Y-58237476D01*
X150709285Y-58285095D01*
%TO.C,C4*%
X152663142Y-55933666D02*
X152710761Y-55981285D01*
X152758380Y-56124142D01*
X152758380Y-56219380D01*
X152710761Y-56362238D01*
X152615523Y-56457476D01*
X152520285Y-56505095D01*
X152329809Y-56552714D01*
X152186952Y-56552714D01*
X151996476Y-56505095D01*
X151901238Y-56457476D01*
X151806000Y-56362238D01*
X151758380Y-56219380D01*
X151758380Y-56124142D01*
X151806000Y-55981285D01*
X151853619Y-55933666D01*
X152091714Y-55076523D02*
X152758380Y-55076523D01*
X151710761Y-55314619D02*
X152425047Y-55552714D01*
X152425047Y-54933666D01*
%TO.C,C3*%
X158456333Y-53951142D02*
X158408714Y-53998761D01*
X158265857Y-54046380D01*
X158170619Y-54046380D01*
X158027761Y-53998761D01*
X157932523Y-53903523D01*
X157884904Y-53808285D01*
X157837285Y-53617809D01*
X157837285Y-53474952D01*
X157884904Y-53284476D01*
X157932523Y-53189238D01*
X158027761Y-53094000D01*
X158170619Y-53046380D01*
X158265857Y-53046380D01*
X158408714Y-53094000D01*
X158456333Y-53141619D01*
X158789666Y-53046380D02*
X159408714Y-53046380D01*
X159075380Y-53427333D01*
X159218238Y-53427333D01*
X159313476Y-53474952D01*
X159361095Y-53522571D01*
X159408714Y-53617809D01*
X159408714Y-53855904D01*
X159361095Y-53951142D01*
X159313476Y-53998761D01*
X159218238Y-54046380D01*
X158932523Y-54046380D01*
X158837285Y-53998761D01*
X158789666Y-53951142D01*
%TO.C,C2*%
X154027142Y-61253666D02*
X154074761Y-61301285D01*
X154122380Y-61444142D01*
X154122380Y-61539380D01*
X154074761Y-61682238D01*
X153979523Y-61777476D01*
X153884285Y-61825095D01*
X153693809Y-61872714D01*
X153550952Y-61872714D01*
X153360476Y-61825095D01*
X153265238Y-61777476D01*
X153170000Y-61682238D01*
X153122380Y-61539380D01*
X153122380Y-61444142D01*
X153170000Y-61301285D01*
X153217619Y-61253666D01*
X153217619Y-60872714D02*
X153170000Y-60825095D01*
X153122380Y-60729857D01*
X153122380Y-60491761D01*
X153170000Y-60396523D01*
X153217619Y-60348904D01*
X153312857Y-60301285D01*
X153408095Y-60301285D01*
X153550952Y-60348904D01*
X154122380Y-60920333D01*
X154122380Y-60301285D01*
%TO.C,C1*%
X158202333Y-58777142D02*
X158154714Y-58824761D01*
X158011857Y-58872380D01*
X157916619Y-58872380D01*
X157773761Y-58824761D01*
X157678523Y-58729523D01*
X157630904Y-58634285D01*
X157583285Y-58443809D01*
X157583285Y-58300952D01*
X157630904Y-58110476D01*
X157678523Y-58015238D01*
X157773761Y-57920000D01*
X157916619Y-57872380D01*
X158011857Y-57872380D01*
X158154714Y-57920000D01*
X158202333Y-57967619D01*
X159154714Y-58872380D02*
X158583285Y-58872380D01*
X158869000Y-58872380D02*
X158869000Y-57872380D01*
X158773761Y-58015238D01*
X158678523Y-58110476D01*
X158583285Y-58158095D01*
%TD*%
M02*
