%TF.GenerationSoftware,KiCad,Pcbnew,5.1.6-c6e7f7d~86~ubuntu18.04.1*%
%TF.CreationDate,2021-01-14T22:54:31-08:00*%
%TF.ProjectId,pmod_spdif,706d6f64-5f73-4706-9469-662e6b696361,rev?*%
%TF.SameCoordinates,Original*%
%TF.FileFunction,Legend,Bot*%
%TF.FilePolarity,Positive*%
%FSLAX46Y46*%
G04 Gerber Fmt 4.6, Leading zero omitted, Abs format (unit mm)*
G04 Created by KiCad (PCBNEW 5.1.6-c6e7f7d~86~ubuntu18.04.1) date 2021-01-14 22:54:31*
%MOMM*%
%LPD*%
G01*
G04 APERTURE LIST*
%ADD10C,0.150000*%
G04 APERTURE END LIST*
D10*
X157011619Y-65926642D02*
X157011619Y-65307595D01*
X156630666Y-65640928D01*
X156630666Y-65498071D01*
X156583047Y-65402833D01*
X156535428Y-65355214D01*
X156440190Y-65307595D01*
X156202095Y-65307595D01*
X156106857Y-65355214D01*
X156059238Y-65402833D01*
X156011619Y-65498071D01*
X156011619Y-65783785D01*
X156059238Y-65879023D01*
X156106857Y-65926642D01*
X157011619Y-65021880D02*
X156011619Y-64688547D01*
X157011619Y-64355214D01*
X157011619Y-64117119D02*
X157011619Y-63498071D01*
X156630666Y-63831404D01*
X156630666Y-63688547D01*
X156583047Y-63593309D01*
X156535428Y-63545690D01*
X156440190Y-63498071D01*
X156202095Y-63498071D01*
X156106857Y-63545690D01*
X156059238Y-63593309D01*
X156011619Y-63688547D01*
X156011619Y-63974261D01*
X156059238Y-64069500D01*
X156106857Y-64117119D01*
X153471619Y-65958404D02*
X154471619Y-65958404D01*
X154376380Y-65529833D02*
X154424000Y-65482214D01*
X154471619Y-65386976D01*
X154471619Y-65148880D01*
X154424000Y-65053642D01*
X154376380Y-65006023D01*
X154281142Y-64958404D01*
X154185904Y-64958404D01*
X154043047Y-65006023D01*
X153471619Y-65577452D01*
X153471619Y-64958404D01*
X153519238Y-64577452D02*
X153471619Y-64434595D01*
X153471619Y-64196500D01*
X153519238Y-64101261D01*
X153566857Y-64053642D01*
X153662095Y-64006023D01*
X153757333Y-64006023D01*
X153852571Y-64053642D01*
X153900190Y-64101261D01*
X153947809Y-64196500D01*
X153995428Y-64386976D01*
X154043047Y-64482214D01*
X154090666Y-64529833D01*
X154185904Y-64577452D01*
X154281142Y-64577452D01*
X154376380Y-64529833D01*
X154424000Y-64482214D01*
X154471619Y-64386976D01*
X154471619Y-64148880D01*
X154424000Y-64006023D01*
X153376380Y-63815547D02*
X153376380Y-63053642D01*
X153995428Y-62482214D02*
X153947809Y-62339357D01*
X153900190Y-62291738D01*
X153804952Y-62244119D01*
X153662095Y-62244119D01*
X153566857Y-62291738D01*
X153519238Y-62339357D01*
X153471619Y-62434595D01*
X153471619Y-62815547D01*
X154471619Y-62815547D01*
X154471619Y-62482214D01*
X154424000Y-62386976D01*
X154376380Y-62339357D01*
X154281142Y-62291738D01*
X154185904Y-62291738D01*
X154090666Y-62339357D01*
X154043047Y-62386976D01*
X153995428Y-62482214D01*
X153995428Y-62815547D01*
X153566857Y-61244119D02*
X153519238Y-61291738D01*
X153471619Y-61434595D01*
X153471619Y-61529833D01*
X153519238Y-61672690D01*
X153614476Y-61767928D01*
X153709714Y-61815547D01*
X153900190Y-61863166D01*
X154043047Y-61863166D01*
X154233523Y-61815547D01*
X154328761Y-61767928D01*
X154424000Y-61672690D01*
X154471619Y-61529833D01*
X154471619Y-61434595D01*
X154424000Y-61291738D01*
X154376380Y-61244119D01*
X153471619Y-60339357D02*
X153471619Y-60815547D01*
X154471619Y-60815547D01*
X153471619Y-60006023D02*
X154471619Y-60006023D01*
X153471619Y-59434595D02*
X154043047Y-59863166D01*
X154471619Y-59434595D02*
X153900190Y-60006023D01*
X150931619Y-65958404D02*
X151931619Y-65958404D01*
X151836380Y-65529833D02*
X151884000Y-65482214D01*
X151931619Y-65386976D01*
X151931619Y-65148880D01*
X151884000Y-65053642D01*
X151836380Y-65006023D01*
X151741142Y-64958404D01*
X151645904Y-64958404D01*
X151503047Y-65006023D01*
X150931619Y-65577452D01*
X150931619Y-64958404D01*
X150979238Y-64577452D02*
X150931619Y-64434595D01*
X150931619Y-64196500D01*
X150979238Y-64101261D01*
X151026857Y-64053642D01*
X151122095Y-64006023D01*
X151217333Y-64006023D01*
X151312571Y-64053642D01*
X151360190Y-64101261D01*
X151407809Y-64196500D01*
X151455428Y-64386976D01*
X151503047Y-64482214D01*
X151550666Y-64529833D01*
X151645904Y-64577452D01*
X151741142Y-64577452D01*
X151836380Y-64529833D01*
X151884000Y-64482214D01*
X151931619Y-64386976D01*
X151931619Y-64148880D01*
X151884000Y-64006023D01*
X150836380Y-63815547D02*
X150836380Y-63053642D01*
X150931619Y-62815547D02*
X151931619Y-62815547D01*
X151217333Y-62482214D01*
X151931619Y-62148880D01*
X150931619Y-62148880D01*
X151026857Y-61101261D02*
X150979238Y-61148880D01*
X150931619Y-61291738D01*
X150931619Y-61386976D01*
X150979238Y-61529833D01*
X151074476Y-61625071D01*
X151169714Y-61672690D01*
X151360190Y-61720309D01*
X151503047Y-61720309D01*
X151693523Y-61672690D01*
X151788761Y-61625071D01*
X151884000Y-61529833D01*
X151931619Y-61386976D01*
X151931619Y-61291738D01*
X151884000Y-61148880D01*
X151836380Y-61101261D01*
X150931619Y-60196500D02*
X150931619Y-60672690D01*
X151931619Y-60672690D01*
X150931619Y-59863166D02*
X151931619Y-59863166D01*
X150931619Y-59291738D02*
X151503047Y-59720309D01*
X151931619Y-59291738D02*
X151360190Y-59863166D01*
X148328119Y-65958404D02*
X149328119Y-65958404D01*
X149232880Y-65529833D02*
X149280500Y-65482214D01*
X149328119Y-65386976D01*
X149328119Y-65148880D01*
X149280500Y-65053642D01*
X149232880Y-65006023D01*
X149137642Y-64958404D01*
X149042404Y-64958404D01*
X148899547Y-65006023D01*
X148328119Y-65577452D01*
X148328119Y-64958404D01*
X148375738Y-64577452D02*
X148328119Y-64434595D01*
X148328119Y-64196500D01*
X148375738Y-64101261D01*
X148423357Y-64053642D01*
X148518595Y-64006023D01*
X148613833Y-64006023D01*
X148709071Y-64053642D01*
X148756690Y-64101261D01*
X148804309Y-64196500D01*
X148851928Y-64386976D01*
X148899547Y-64482214D01*
X148947166Y-64529833D01*
X149042404Y-64577452D01*
X149137642Y-64577452D01*
X149232880Y-64529833D01*
X149280500Y-64482214D01*
X149328119Y-64386976D01*
X149328119Y-64148880D01*
X149280500Y-64006023D01*
X148232880Y-63815547D02*
X148232880Y-63053642D01*
X149328119Y-62910785D02*
X148328119Y-62672690D01*
X149042404Y-62482214D01*
X148328119Y-62291738D01*
X149328119Y-62053642D01*
X148375738Y-61720309D02*
X148328119Y-61577452D01*
X148328119Y-61339357D01*
X148375738Y-61244119D01*
X148423357Y-61196500D01*
X148518595Y-61148880D01*
X148613833Y-61148880D01*
X148709071Y-61196500D01*
X148756690Y-61244119D01*
X148804309Y-61339357D01*
X148851928Y-61529833D01*
X148899547Y-61625071D01*
X148947166Y-61672690D01*
X149042404Y-61720309D01*
X149137642Y-61720309D01*
X149232880Y-61672690D01*
X149280500Y-61625071D01*
X149328119Y-61529833D01*
X149328119Y-61291738D01*
X149280500Y-61148880D01*
X145851619Y-65958404D02*
X146851619Y-65958404D01*
X146756380Y-65529833D02*
X146804000Y-65482214D01*
X146851619Y-65386976D01*
X146851619Y-65148880D01*
X146804000Y-65053642D01*
X146756380Y-65006023D01*
X146661142Y-64958404D01*
X146565904Y-64958404D01*
X146423047Y-65006023D01*
X145851619Y-65577452D01*
X145851619Y-64958404D01*
X145899238Y-64577452D02*
X145851619Y-64434595D01*
X145851619Y-64196500D01*
X145899238Y-64101261D01*
X145946857Y-64053642D01*
X146042095Y-64006023D01*
X146137333Y-64006023D01*
X146232571Y-64053642D01*
X146280190Y-64101261D01*
X146327809Y-64196500D01*
X146375428Y-64386976D01*
X146423047Y-64482214D01*
X146470666Y-64529833D01*
X146565904Y-64577452D01*
X146661142Y-64577452D01*
X146756380Y-64529833D01*
X146804000Y-64482214D01*
X146851619Y-64386976D01*
X146851619Y-64148880D01*
X146804000Y-64006023D01*
X145756380Y-63815547D02*
X145756380Y-63053642D01*
X145899238Y-62863166D02*
X145851619Y-62720309D01*
X145851619Y-62482214D01*
X145899238Y-62386976D01*
X145946857Y-62339357D01*
X146042095Y-62291738D01*
X146137333Y-62291738D01*
X146232571Y-62339357D01*
X146280190Y-62386976D01*
X146327809Y-62482214D01*
X146375428Y-62672690D01*
X146423047Y-62767928D01*
X146470666Y-62815547D01*
X146565904Y-62863166D01*
X146661142Y-62863166D01*
X146756380Y-62815547D01*
X146804000Y-62767928D01*
X146851619Y-62672690D01*
X146851619Y-62434595D01*
X146804000Y-62291738D01*
X145851619Y-61863166D02*
X146851619Y-61863166D01*
X146851619Y-61625071D01*
X146804000Y-61482214D01*
X146708761Y-61386976D01*
X146613523Y-61339357D01*
X146423047Y-61291738D01*
X146280190Y-61291738D01*
X146089714Y-61339357D01*
X145994476Y-61386976D01*
X145899238Y-61482214D01*
X145851619Y-61625071D01*
X145851619Y-61863166D01*
X146851619Y-60672690D02*
X146851619Y-60482214D01*
X146804000Y-60386976D01*
X146708761Y-60291738D01*
X146518285Y-60244119D01*
X146184952Y-60244119D01*
X145994476Y-60291738D01*
X145899238Y-60386976D01*
X145851619Y-60482214D01*
X145851619Y-60672690D01*
X145899238Y-60767928D01*
X145994476Y-60863166D01*
X146184952Y-60910785D01*
X146518285Y-60910785D01*
X146708761Y-60863166D01*
X146804000Y-60767928D01*
X146851619Y-60672690D01*
X144264000Y-65371095D02*
X144311619Y-65466333D01*
X144311619Y-65609190D01*
X144264000Y-65752047D01*
X144168761Y-65847285D01*
X144073523Y-65894904D01*
X143883047Y-65942523D01*
X143740190Y-65942523D01*
X143549714Y-65894904D01*
X143454476Y-65847285D01*
X143359238Y-65752047D01*
X143311619Y-65609190D01*
X143311619Y-65513952D01*
X143359238Y-65371095D01*
X143406857Y-65323476D01*
X143740190Y-65323476D01*
X143740190Y-65513952D01*
X143311619Y-64894904D02*
X144311619Y-64894904D01*
X143311619Y-64323476D01*
X144311619Y-64323476D01*
X143311619Y-63847285D02*
X144311619Y-63847285D01*
X144311619Y-63609190D01*
X144264000Y-63466333D01*
X144168761Y-63371095D01*
X144073523Y-63323476D01*
X143883047Y-63275857D01*
X143740190Y-63275857D01*
X143549714Y-63323476D01*
X143454476Y-63371095D01*
X143359238Y-63466333D01*
X143311619Y-63609190D01*
X143311619Y-63847285D01*
X155466142Y-54879714D02*
X155466142Y-54117714D01*
X155175857Y-54117714D01*
X155103285Y-54154000D01*
X155067000Y-54190285D01*
X155030714Y-54262857D01*
X155030714Y-54371714D01*
X155067000Y-54444285D01*
X155103285Y-54480571D01*
X155175857Y-54516857D01*
X155466142Y-54516857D01*
X154704142Y-54879714D02*
X154704142Y-54117714D01*
X154450142Y-54662000D01*
X154196142Y-54117714D01*
X154196142Y-54879714D01*
X153688142Y-54117714D02*
X153543000Y-54117714D01*
X153470428Y-54154000D01*
X153397857Y-54226571D01*
X153361571Y-54371714D01*
X153361571Y-54625714D01*
X153397857Y-54770857D01*
X153470428Y-54843428D01*
X153543000Y-54879714D01*
X153688142Y-54879714D01*
X153760714Y-54843428D01*
X153833285Y-54770857D01*
X153869571Y-54625714D01*
X153869571Y-54371714D01*
X153833285Y-54226571D01*
X153760714Y-54154000D01*
X153688142Y-54117714D01*
X153035000Y-54879714D02*
X153035000Y-54117714D01*
X152853571Y-54117714D01*
X152744714Y-54154000D01*
X152672142Y-54226571D01*
X152635857Y-54299142D01*
X152599571Y-54444285D01*
X152599571Y-54553142D01*
X152635857Y-54698285D01*
X152672142Y-54770857D01*
X152744714Y-54843428D01*
X152853571Y-54879714D01*
X153035000Y-54879714D01*
X151801285Y-54371714D02*
X151511000Y-54371714D01*
X151692428Y-54117714D02*
X151692428Y-54770857D01*
X151656142Y-54843428D01*
X151583571Y-54879714D01*
X151511000Y-54879714D01*
X151148142Y-54879714D02*
X151220714Y-54843428D01*
X151257000Y-54807142D01*
X151293285Y-54734571D01*
X151293285Y-54516857D01*
X151257000Y-54444285D01*
X151220714Y-54408000D01*
X151148142Y-54371714D01*
X151039285Y-54371714D01*
X150966714Y-54408000D01*
X150930428Y-54444285D01*
X150894142Y-54516857D01*
X150894142Y-54734571D01*
X150930428Y-54807142D01*
X150966714Y-54843428D01*
X151039285Y-54879714D01*
X151148142Y-54879714D01*
X150023285Y-54843428D02*
X149914428Y-54879714D01*
X149733000Y-54879714D01*
X149660428Y-54843428D01*
X149624142Y-54807142D01*
X149587857Y-54734571D01*
X149587857Y-54662000D01*
X149624142Y-54589428D01*
X149660428Y-54553142D01*
X149733000Y-54516857D01*
X149878142Y-54480571D01*
X149950714Y-54444285D01*
X149987000Y-54408000D01*
X150023285Y-54335428D01*
X150023285Y-54262857D01*
X149987000Y-54190285D01*
X149950714Y-54154000D01*
X149878142Y-54117714D01*
X149696714Y-54117714D01*
X149587857Y-54154000D01*
X148717000Y-54081428D02*
X149370142Y-55061142D01*
X148463000Y-54879714D02*
X148463000Y-54117714D01*
X148172714Y-54117714D01*
X148100142Y-54154000D01*
X148063857Y-54190285D01*
X148027571Y-54262857D01*
X148027571Y-54371714D01*
X148063857Y-54444285D01*
X148100142Y-54480571D01*
X148172714Y-54516857D01*
X148463000Y-54516857D01*
X147701000Y-54879714D02*
X147701000Y-54117714D01*
X147519571Y-54117714D01*
X147410714Y-54154000D01*
X147338142Y-54226571D01*
X147301857Y-54299142D01*
X147265571Y-54444285D01*
X147265571Y-54553142D01*
X147301857Y-54698285D01*
X147338142Y-54770857D01*
X147410714Y-54843428D01*
X147519571Y-54879714D01*
X147701000Y-54879714D01*
X146939000Y-54879714D02*
X146939000Y-54117714D01*
X146322142Y-54480571D02*
X146576142Y-54480571D01*
X146576142Y-54879714D02*
X146576142Y-54117714D01*
X146213285Y-54117714D01*
X145451285Y-54117714D02*
X145015857Y-54117714D01*
X145233571Y-54879714D02*
X145233571Y-54117714D01*
X144616714Y-54117714D02*
X144471571Y-54117714D01*
X144399000Y-54154000D01*
X144326428Y-54226571D01*
X144290142Y-54371714D01*
X144290142Y-54625714D01*
X144326428Y-54770857D01*
X144399000Y-54843428D01*
X144471571Y-54879714D01*
X144616714Y-54879714D01*
X144689285Y-54843428D01*
X144761857Y-54770857D01*
X144798142Y-54625714D01*
X144798142Y-54371714D01*
X144761857Y-54226571D01*
X144689285Y-54154000D01*
X144616714Y-54117714D01*
X143999857Y-54843428D02*
X143891000Y-54879714D01*
X143709571Y-54879714D01*
X143637000Y-54843428D01*
X143600714Y-54807142D01*
X143564428Y-54734571D01*
X143564428Y-54662000D01*
X143600714Y-54589428D01*
X143637000Y-54553142D01*
X143709571Y-54516857D01*
X143854714Y-54480571D01*
X143927285Y-54444285D01*
X143963571Y-54408000D01*
X143999857Y-54335428D01*
X143999857Y-54262857D01*
X143963571Y-54190285D01*
X143927285Y-54154000D01*
X143854714Y-54117714D01*
X143673285Y-54117714D01*
X143564428Y-54154000D01*
X142875000Y-54879714D02*
X143237857Y-54879714D01*
X143237857Y-54117714D01*
X142621000Y-54879714D02*
X142621000Y-54117714D01*
X142258142Y-54879714D02*
X142258142Y-54117714D01*
X141822714Y-54879714D01*
X141822714Y-54117714D01*
X141459857Y-54879714D02*
X141459857Y-54117714D01*
X141024428Y-54879714D02*
X141351000Y-54444285D01*
X141024428Y-54117714D02*
X141459857Y-54553142D01*
X140189857Y-54371714D02*
X140008428Y-54879714D01*
X139827000Y-54371714D01*
X139573000Y-54190285D02*
X139536714Y-54154000D01*
X139464142Y-54117714D01*
X139282714Y-54117714D01*
X139210142Y-54154000D01*
X139173857Y-54190285D01*
X139137571Y-54262857D01*
X139137571Y-54335428D01*
X139173857Y-54444285D01*
X139609285Y-54879714D01*
X139137571Y-54879714D01*
X160219571Y-56172714D02*
X160219571Y-55410714D01*
X159893000Y-56172714D02*
X159893000Y-55773571D01*
X159929285Y-55701000D01*
X160001857Y-55664714D01*
X160110714Y-55664714D01*
X160183285Y-55701000D01*
X160219571Y-55737285D01*
X159639000Y-55664714D02*
X159348714Y-55664714D01*
X159530142Y-55410714D02*
X159530142Y-56063857D01*
X159493857Y-56136428D01*
X159421285Y-56172714D01*
X159348714Y-56172714D01*
X159203571Y-55664714D02*
X158913285Y-55664714D01*
X159094714Y-55410714D02*
X159094714Y-56063857D01*
X159058428Y-56136428D01*
X158985857Y-56172714D01*
X158913285Y-56172714D01*
X158659285Y-55664714D02*
X158659285Y-56426714D01*
X158659285Y-55701000D02*
X158586714Y-55664714D01*
X158441571Y-55664714D01*
X158369000Y-55701000D01*
X158332714Y-55737285D01*
X158296428Y-55809857D01*
X158296428Y-56027571D01*
X158332714Y-56100142D01*
X158369000Y-56136428D01*
X158441571Y-56172714D01*
X158586714Y-56172714D01*
X158659285Y-56136428D01*
X158006142Y-56136428D02*
X157933571Y-56172714D01*
X157788428Y-56172714D01*
X157715857Y-56136428D01*
X157679571Y-56063857D01*
X157679571Y-56027571D01*
X157715857Y-55955000D01*
X157788428Y-55918714D01*
X157897285Y-55918714D01*
X157969857Y-55882428D01*
X158006142Y-55809857D01*
X158006142Y-55773571D01*
X157969857Y-55701000D01*
X157897285Y-55664714D01*
X157788428Y-55664714D01*
X157715857Y-55701000D01*
X157353000Y-56100142D02*
X157316714Y-56136428D01*
X157353000Y-56172714D01*
X157389285Y-56136428D01*
X157353000Y-56100142D01*
X157353000Y-56172714D01*
X157353000Y-55701000D02*
X157316714Y-55737285D01*
X157353000Y-55773571D01*
X157389285Y-55737285D01*
X157353000Y-55701000D01*
X157353000Y-55773571D01*
X156445857Y-55374428D02*
X157099000Y-56354142D01*
X155647571Y-55374428D02*
X156300714Y-56354142D01*
X155067000Y-55664714D02*
X155067000Y-56281571D01*
X155103285Y-56354142D01*
X155139571Y-56390428D01*
X155212142Y-56426714D01*
X155321000Y-56426714D01*
X155393571Y-56390428D01*
X155067000Y-56136428D02*
X155139571Y-56172714D01*
X155284714Y-56172714D01*
X155357285Y-56136428D01*
X155393571Y-56100142D01*
X155429857Y-56027571D01*
X155429857Y-55809857D01*
X155393571Y-55737285D01*
X155357285Y-55701000D01*
X155284714Y-55664714D01*
X155139571Y-55664714D01*
X155067000Y-55701000D01*
X154704142Y-56172714D02*
X154704142Y-55664714D01*
X154704142Y-55410714D02*
X154740428Y-55447000D01*
X154704142Y-55483285D01*
X154667857Y-55447000D01*
X154704142Y-55410714D01*
X154704142Y-55483285D01*
X154450142Y-55664714D02*
X154159857Y-55664714D01*
X154341285Y-55410714D02*
X154341285Y-56063857D01*
X154305000Y-56136428D01*
X154232428Y-56172714D01*
X154159857Y-56172714D01*
X153905857Y-56172714D02*
X153905857Y-55410714D01*
X153579285Y-56172714D02*
X153579285Y-55773571D01*
X153615571Y-55701000D01*
X153688142Y-55664714D01*
X153797000Y-55664714D01*
X153869571Y-55701000D01*
X153905857Y-55737285D01*
X152889857Y-55664714D02*
X152889857Y-56172714D01*
X153216428Y-55664714D02*
X153216428Y-56063857D01*
X153180142Y-56136428D01*
X153107571Y-56172714D01*
X152998714Y-56172714D01*
X152926142Y-56136428D01*
X152889857Y-56100142D01*
X152527000Y-56172714D02*
X152527000Y-55410714D01*
X152527000Y-55701000D02*
X152454428Y-55664714D01*
X152309285Y-55664714D01*
X152236714Y-55701000D01*
X152200428Y-55737285D01*
X152164142Y-55809857D01*
X152164142Y-56027571D01*
X152200428Y-56100142D01*
X152236714Y-56136428D01*
X152309285Y-56172714D01*
X152454428Y-56172714D01*
X152527000Y-56136428D01*
X151837571Y-56100142D02*
X151801285Y-56136428D01*
X151837571Y-56172714D01*
X151873857Y-56136428D01*
X151837571Y-56100142D01*
X151837571Y-56172714D01*
X151148142Y-56136428D02*
X151220714Y-56172714D01*
X151365857Y-56172714D01*
X151438428Y-56136428D01*
X151474714Y-56100142D01*
X151511000Y-56027571D01*
X151511000Y-55809857D01*
X151474714Y-55737285D01*
X151438428Y-55701000D01*
X151365857Y-55664714D01*
X151220714Y-55664714D01*
X151148142Y-55701000D01*
X150712714Y-56172714D02*
X150785285Y-56136428D01*
X150821571Y-56100142D01*
X150857857Y-56027571D01*
X150857857Y-55809857D01*
X150821571Y-55737285D01*
X150785285Y-55701000D01*
X150712714Y-55664714D01*
X150603857Y-55664714D01*
X150531285Y-55701000D01*
X150495000Y-55737285D01*
X150458714Y-55809857D01*
X150458714Y-56027571D01*
X150495000Y-56100142D01*
X150531285Y-56136428D01*
X150603857Y-56172714D01*
X150712714Y-56172714D01*
X150132142Y-56172714D02*
X150132142Y-55664714D01*
X150132142Y-55737285D02*
X150095857Y-55701000D01*
X150023285Y-55664714D01*
X149914428Y-55664714D01*
X149841857Y-55701000D01*
X149805571Y-55773571D01*
X149805571Y-56172714D01*
X149805571Y-55773571D02*
X149769285Y-55701000D01*
X149696714Y-55664714D01*
X149587857Y-55664714D01*
X149515285Y-55701000D01*
X149479000Y-55773571D01*
X149479000Y-56172714D01*
X148571857Y-55374428D02*
X149225000Y-56354142D01*
X148426714Y-55664714D02*
X148136428Y-55664714D01*
X148317857Y-55410714D02*
X148317857Y-56063857D01*
X148281571Y-56136428D01*
X148209000Y-56172714D01*
X148136428Y-56172714D01*
X147773571Y-56172714D02*
X147846142Y-56136428D01*
X147882428Y-56100142D01*
X147918714Y-56027571D01*
X147918714Y-55809857D01*
X147882428Y-55737285D01*
X147846142Y-55701000D01*
X147773571Y-55664714D01*
X147664714Y-55664714D01*
X147592142Y-55701000D01*
X147555857Y-55737285D01*
X147519571Y-55809857D01*
X147519571Y-56027571D01*
X147555857Y-56100142D01*
X147592142Y-56136428D01*
X147664714Y-56172714D01*
X147773571Y-56172714D01*
X147193000Y-56172714D02*
X147193000Y-55664714D01*
X147193000Y-55737285D02*
X147156714Y-55701000D01*
X147084142Y-55664714D01*
X146975285Y-55664714D01*
X146902714Y-55701000D01*
X146866428Y-55773571D01*
X146866428Y-56172714D01*
X146866428Y-55773571D02*
X146830142Y-55701000D01*
X146757571Y-55664714D01*
X146648714Y-55664714D01*
X146576142Y-55701000D01*
X146539857Y-55773571D01*
X146539857Y-56172714D01*
X146249571Y-55664714D02*
X146068142Y-56172714D01*
X145886714Y-55664714D01*
X145306142Y-56136428D02*
X145378714Y-56172714D01*
X145523857Y-56172714D01*
X145596428Y-56136428D01*
X145632714Y-56063857D01*
X145632714Y-55773571D01*
X145596428Y-55701000D01*
X145523857Y-55664714D01*
X145378714Y-55664714D01*
X145306142Y-55701000D01*
X145269857Y-55773571D01*
X145269857Y-55846142D01*
X145632714Y-55918714D01*
X144943285Y-56172714D02*
X144943285Y-55664714D01*
X144943285Y-55809857D02*
X144907000Y-55737285D01*
X144870714Y-55701000D01*
X144798142Y-55664714D01*
X144725571Y-55664714D01*
X144471571Y-56172714D02*
X144471571Y-55410714D01*
X144471571Y-55701000D02*
X144399000Y-55664714D01*
X144253857Y-55664714D01*
X144181285Y-55701000D01*
X144145000Y-55737285D01*
X144108714Y-55809857D01*
X144108714Y-56027571D01*
X144145000Y-56100142D01*
X144181285Y-56136428D01*
X144253857Y-56172714D01*
X144399000Y-56172714D01*
X144471571Y-56136428D01*
X143491857Y-56136428D02*
X143564428Y-56172714D01*
X143709571Y-56172714D01*
X143782142Y-56136428D01*
X143818428Y-56063857D01*
X143818428Y-55773571D01*
X143782142Y-55701000D01*
X143709571Y-55664714D01*
X143564428Y-55664714D01*
X143491857Y-55701000D01*
X143455571Y-55773571D01*
X143455571Y-55846142D01*
X143818428Y-55918714D01*
X142802428Y-55664714D02*
X142802428Y-56172714D01*
X143129000Y-55664714D02*
X143129000Y-56063857D01*
X143092714Y-56136428D01*
X143020142Y-56172714D01*
X142911285Y-56172714D01*
X142838714Y-56136428D01*
X142802428Y-56100142D01*
X142439571Y-56172714D02*
X142439571Y-55664714D01*
X142439571Y-55809857D02*
X142403285Y-55737285D01*
X142367000Y-55701000D01*
X142294428Y-55664714D01*
X142221857Y-55664714D01*
X141677571Y-56136428D02*
X141750142Y-56172714D01*
X141895285Y-56172714D01*
X141967857Y-56136428D01*
X142004142Y-56063857D01*
X142004142Y-55773571D01*
X141967857Y-55701000D01*
X141895285Y-55664714D01*
X141750142Y-55664714D01*
X141677571Y-55701000D01*
X141641285Y-55773571D01*
X141641285Y-55846142D01*
X142004142Y-55918714D01*
X140770428Y-55374428D02*
X141423571Y-56354142D01*
X140552714Y-56136428D02*
X140480142Y-56172714D01*
X140335000Y-56172714D01*
X140262428Y-56136428D01*
X140226142Y-56063857D01*
X140226142Y-56027571D01*
X140262428Y-55955000D01*
X140335000Y-55918714D01*
X140443857Y-55918714D01*
X140516428Y-55882428D01*
X140552714Y-55809857D01*
X140552714Y-55773571D01*
X140516428Y-55701000D01*
X140443857Y-55664714D01*
X140335000Y-55664714D01*
X140262428Y-55701000D01*
X139899571Y-55664714D02*
X139899571Y-56426714D01*
X139899571Y-55701000D02*
X139827000Y-55664714D01*
X139681857Y-55664714D01*
X139609285Y-55701000D01*
X139573000Y-55737285D01*
X139536714Y-55809857D01*
X139536714Y-56027571D01*
X139573000Y-56100142D01*
X139609285Y-56136428D01*
X139681857Y-56172714D01*
X139827000Y-56172714D01*
X139899571Y-56136428D01*
X138883571Y-56172714D02*
X138883571Y-55410714D01*
X138883571Y-56136428D02*
X138956142Y-56172714D01*
X139101285Y-56172714D01*
X139173857Y-56136428D01*
X139210142Y-56100142D01*
X139246428Y-56027571D01*
X139246428Y-55809857D01*
X139210142Y-55737285D01*
X139173857Y-55701000D01*
X139101285Y-55664714D01*
X138956142Y-55664714D01*
X138883571Y-55701000D01*
X138520714Y-56172714D02*
X138520714Y-55664714D01*
X138520714Y-55410714D02*
X138557000Y-55447000D01*
X138520714Y-55483285D01*
X138484428Y-55447000D01*
X138520714Y-55410714D01*
X138520714Y-55483285D01*
X138266714Y-55664714D02*
X137976428Y-55664714D01*
X138157857Y-56172714D02*
X138157857Y-55519571D01*
X138121571Y-55447000D01*
X138049000Y-55410714D01*
X137976428Y-55410714D01*
X137903857Y-56245285D02*
X137323285Y-56245285D01*
X137141857Y-55664714D02*
X137141857Y-56426714D01*
X137141857Y-55701000D02*
X137069285Y-55664714D01*
X136924142Y-55664714D01*
X136851571Y-55701000D01*
X136815285Y-55737285D01*
X136779000Y-55809857D01*
X136779000Y-56027571D01*
X136815285Y-56100142D01*
X136851571Y-56136428D01*
X136924142Y-56172714D01*
X137069285Y-56172714D01*
X137141857Y-56136428D01*
X136452428Y-56172714D02*
X136452428Y-55664714D01*
X136452428Y-55737285D02*
X136416142Y-55701000D01*
X136343571Y-55664714D01*
X136234714Y-55664714D01*
X136162142Y-55701000D01*
X136125857Y-55773571D01*
X136125857Y-56172714D01*
X136125857Y-55773571D02*
X136089571Y-55701000D01*
X136017000Y-55664714D01*
X135908142Y-55664714D01*
X135835571Y-55701000D01*
X135799285Y-55773571D01*
X135799285Y-56172714D01*
X135327571Y-56172714D02*
X135400142Y-56136428D01*
X135436428Y-56100142D01*
X135472714Y-56027571D01*
X135472714Y-55809857D01*
X135436428Y-55737285D01*
X135400142Y-55701000D01*
X135327571Y-55664714D01*
X135218714Y-55664714D01*
X135146142Y-55701000D01*
X135109857Y-55737285D01*
X135073571Y-55809857D01*
X135073571Y-56027571D01*
X135109857Y-56100142D01*
X135146142Y-56136428D01*
X135218714Y-56172714D01*
X135327571Y-56172714D01*
X134420428Y-56172714D02*
X134420428Y-55410714D01*
X134420428Y-56136428D02*
X134493000Y-56172714D01*
X134638142Y-56172714D01*
X134710714Y-56136428D01*
X134747000Y-56100142D01*
X134783285Y-56027571D01*
X134783285Y-55809857D01*
X134747000Y-55737285D01*
X134710714Y-55701000D01*
X134638142Y-55664714D01*
X134493000Y-55664714D01*
X134420428Y-55701000D01*
M02*
