M48
; DRILL file {KiCad 5.1.6-c6e7f7d~86~ubuntu18.04.1} date Thu Jan 14 22:54:28 2021
; FORMAT={-:-/ absolute / inch / decimal}
; #@! TF.CreationDate,2021-01-14T22:54:28-08:00
; #@! TF.GenerationSoftware,Kicad,Pcbnew,5.1.6-c6e7f7d~86~ubuntu18.04.1
; #@! TF.FileFunction,Plated,1,2,PTH
FMAT,2
INCH
T1C0.0157
T2C0.0236
T3C0.0300
T4C0.0394
%
G90
G05
T1
X5.59Y-2.265
X5.755Y-2.49
X5.785Y-2.3
X6.14Y-2.34
X6.155Y-2.11
X6.285Y-2.525
T2
X5.4Y-2.28
X5.4Y-2.38
X5.4Y-2.48
T3
X5.2354Y-2.1753
X5.2354Y-2.5847
T4
X5.66Y-2.67
X5.76Y-2.67
X5.86Y-2.67
X5.96Y-2.67
X6.06Y-2.67
X6.16Y-2.67
X6.365Y-2.16
X6.365Y-2.26
X6.365Y-2.36
X6.365Y-2.46
X6.365Y-2.56
X6.365Y-2.66
X6.465Y-2.16
X6.465Y-2.26
X6.465Y-2.36
X6.465Y-2.46
X6.465Y-2.56
X6.465Y-2.66
T0
M30
