%TF.GenerationSoftware,KiCad,Pcbnew,5.1.6-c6e7f7d~86~ubuntu18.04.1*%
%TF.CreationDate,2021-01-06T00:21:07-08:00*%
%TF.ProjectId,pmod_spdif,706d6f64-5f73-4706-9469-662e6b696361,rev?*%
%TF.SameCoordinates,Original*%
%TF.FileFunction,Copper,L2,Bot*%
%TF.FilePolarity,Positive*%
%FSLAX46Y46*%
G04 Gerber Fmt 4.6, Leading zero omitted, Abs format (unit mm)*
G04 Created by KiCad (PCBNEW 5.1.6-c6e7f7d~86~ubuntu18.04.1) date 2021-01-06 00:21:07*
%MOMM*%
%LPD*%
G01*
G04 APERTURE LIST*
%TA.AperFunction,ComponentPad*%
%ADD10O,1.524000X1.524000*%
%TD*%
%TA.AperFunction,ComponentPad*%
%ADD11C,1.524000*%
%TD*%
%TA.AperFunction,ComponentPad*%
%ADD12O,1.700000X1.700000*%
%TD*%
%TA.AperFunction,ComponentPad*%
%ADD13R,1.700000X1.700000*%
%TD*%
%TA.AperFunction,ViaPad*%
%ADD14C,1.270000*%
%TD*%
%TA.AperFunction,ViaPad*%
%ADD15C,0.800000*%
%TD*%
%TA.AperFunction,Conductor*%
%ADD16C,0.250000*%
%TD*%
%TA.AperFunction,Conductor*%
%ADD17C,0.254000*%
%TD*%
G04 APERTURE END LIST*
D10*
%TO.P,U3,3*%
%TO.N,+5V*%
X137160000Y-57912000D03*
%TO.P,U3,2*%
%TO.N,Net-(R3-Pad1)*%
X137160000Y-60452000D03*
D11*
%TO.P,U3,5*%
%TO.N,N/C*%
X132980000Y-55252000D03*
%TO.P,U3,4*%
X132980000Y-65652000D03*
D10*
%TO.P,U3,1*%
X137160000Y-62992000D03*
%TD*%
D12*
%TO.P,J2,6*%
%TO.N,+3V3*%
X156464000Y-67818000D03*
%TO.P,J2,5*%
%TO.N,/I2S_BCLK*%
X153924000Y-67818000D03*
%TO.P,J2,4*%
%TO.N,/I2S_MCLK*%
X151384000Y-67818000D03*
%TO.P,J2,3*%
%TO.N,/I2S_WS*%
X148844000Y-67818000D03*
%TO.P,J2,2*%
%TO.N,/I2S_SDO*%
X146304000Y-67818000D03*
D13*
%TO.P,J2,1*%
%TO.N,GND*%
X143764000Y-67818000D03*
%TD*%
D12*
%TO.P,J1,12*%
%TO.N,+3V3*%
X164211000Y-54864000D03*
%TO.P,J1,6*%
X161671000Y-54864000D03*
%TO.P,J1,11*%
%TO.N,GND*%
X164211000Y-57404000D03*
%TO.P,J1,5*%
X161671000Y-57404000D03*
%TO.P,J1,10*%
%TO.N,/I2S_SDO*%
X164211000Y-59944000D03*
%TO.P,J1,4*%
%TO.N,N/C*%
X161671000Y-59944000D03*
%TO.P,J1,9*%
%TO.N,/I2S_WS*%
X164211000Y-62484000D03*
%TO.P,J1,3*%
%TO.N,N/C*%
X161671000Y-62484000D03*
%TO.P,J1,8*%
%TO.N,/I2S_BCLK*%
X164211000Y-65024000D03*
%TO.P,J1,2*%
%TO.N,/SPDIF*%
X161671000Y-65024000D03*
%TO.P,J1,7*%
%TO.N,/I2S_MCLK*%
X164211000Y-67564000D03*
D13*
%TO.P,J1,1*%
%TO.N,N/C*%
X161671000Y-67564000D03*
%TD*%
D14*
%TO.N,*%
X140335000Y-64516000D03*
D15*
%TO.N,GND*%
X156337000Y-53594000D03*
X155956000Y-59436000D03*
X159639000Y-64135000D03*
X146177000Y-63246000D03*
X141986000Y-57531000D03*
X146939000Y-58420000D03*
D14*
%TO.N,+5V*%
X139192000Y-65786000D03*
%TD*%
D16*
%TO.N,GND*%
X161417000Y-57658000D02*
X161671000Y-57404000D01*
X156337000Y-53594000D02*
X156337000Y-57658000D01*
X154178000Y-57658000D02*
X156337000Y-57658000D01*
X155956000Y-58039000D02*
X156337000Y-57658000D01*
X155956000Y-59436000D02*
X155956000Y-58039000D01*
X161671000Y-57404000D02*
X164211000Y-57404000D01*
X156591000Y-57404000D02*
X156337000Y-57658000D01*
X161671000Y-57404000D02*
X156591000Y-57404000D01*
X155956000Y-60452000D02*
X155956000Y-59436000D01*
X159639000Y-64135000D02*
X155956000Y-60452000D01*
X152146000Y-59690000D02*
X154178000Y-57658000D01*
X146177000Y-63246000D02*
X147066000Y-64135000D01*
X147066000Y-64135000D02*
X147701000Y-64135000D01*
X147701000Y-64135000D02*
X152146000Y-59690000D01*
X143764000Y-68072000D02*
X147701000Y-64135000D01*
X146177000Y-61722000D02*
X146177000Y-63246000D01*
X141986000Y-57531000D02*
X146177000Y-61722000D01*
X146177000Y-59182000D02*
X146177000Y-61722000D01*
X146939000Y-58420000D02*
X146177000Y-59182000D01*
%TO.N,/I2S_SDO*%
X147929012Y-69443012D02*
X146304000Y-67818000D01*
X164211000Y-59944000D02*
X165836012Y-61569012D01*
X164873398Y-69443012D02*
X147929012Y-69443012D01*
X165836012Y-68480398D02*
X164873398Y-69443012D01*
X165836012Y-61569012D02*
X165836012Y-68480398D01*
%TO.N,/I2S_WS*%
X165386001Y-64459999D02*
X164211000Y-63284998D01*
X164211000Y-63284998D02*
X164211000Y-62484000D01*
X165386001Y-68293999D02*
X165386001Y-64459999D01*
X164686999Y-68993001D02*
X165386001Y-68293999D01*
X150019001Y-68993001D02*
X164686999Y-68993001D01*
X148844000Y-67818000D02*
X150019001Y-68993001D01*
%TD*%
D17*
%TO.N,GND*%
G36*
X160967589Y-53548010D02*
G01*
X160724368Y-53710525D01*
X160517525Y-53917368D01*
X160355010Y-54160589D01*
X160243068Y-54430842D01*
X160186000Y-54717740D01*
X160186000Y-55010260D01*
X160243068Y-55297158D01*
X160355010Y-55567411D01*
X160517525Y-55810632D01*
X160724368Y-56017475D01*
X160906534Y-56139195D01*
X160789645Y-56208822D01*
X160573412Y-56403731D01*
X160399359Y-56637080D01*
X160274175Y-56899901D01*
X160229524Y-57047110D01*
X160350845Y-57277000D01*
X161544000Y-57277000D01*
X161544000Y-57257000D01*
X161798000Y-57257000D01*
X161798000Y-57277000D01*
X164084000Y-57277000D01*
X164084000Y-57257000D01*
X164338000Y-57257000D01*
X164338000Y-57277000D01*
X165531155Y-57277000D01*
X165652476Y-57047110D01*
X165607825Y-56899901D01*
X165482641Y-56637080D01*
X165308588Y-56403731D01*
X165092355Y-56208822D01*
X164975466Y-56139195D01*
X165157632Y-56017475D01*
X165364475Y-55810632D01*
X165526990Y-55567411D01*
X165638932Y-55297158D01*
X165696000Y-55010260D01*
X165696000Y-54717740D01*
X165638932Y-54430842D01*
X165526990Y-54160589D01*
X165364475Y-53917368D01*
X165157632Y-53710525D01*
X164914411Y-53548010D01*
X164779190Y-53492000D01*
X165710001Y-53492000D01*
X165710001Y-60368199D01*
X165652210Y-60310408D01*
X165696000Y-60090260D01*
X165696000Y-59797740D01*
X165638932Y-59510842D01*
X165526990Y-59240589D01*
X165364475Y-58997368D01*
X165157632Y-58790525D01*
X164975466Y-58668805D01*
X165092355Y-58599178D01*
X165308588Y-58404269D01*
X165482641Y-58170920D01*
X165607825Y-57908099D01*
X165652476Y-57760890D01*
X165531155Y-57531000D01*
X164338000Y-57531000D01*
X164338000Y-57551000D01*
X164084000Y-57551000D01*
X164084000Y-57531000D01*
X161798000Y-57531000D01*
X161798000Y-57551000D01*
X161544000Y-57551000D01*
X161544000Y-57531000D01*
X160350845Y-57531000D01*
X160229524Y-57760890D01*
X160274175Y-57908099D01*
X160399359Y-58170920D01*
X160573412Y-58404269D01*
X160789645Y-58599178D01*
X160906534Y-58668805D01*
X160724368Y-58790525D01*
X160517525Y-58997368D01*
X160355010Y-59240589D01*
X160243068Y-59510842D01*
X160186000Y-59797740D01*
X160186000Y-60090260D01*
X160243068Y-60377158D01*
X160355010Y-60647411D01*
X160517525Y-60890632D01*
X160724368Y-61097475D01*
X160898760Y-61214000D01*
X160724368Y-61330525D01*
X160517525Y-61537368D01*
X160355010Y-61780589D01*
X160243068Y-62050842D01*
X160186000Y-62337740D01*
X160186000Y-62630260D01*
X160243068Y-62917158D01*
X160355010Y-63187411D01*
X160517525Y-63430632D01*
X160724368Y-63637475D01*
X160898760Y-63754000D01*
X160724368Y-63870525D01*
X160517525Y-64077368D01*
X160355010Y-64320589D01*
X160243068Y-64590842D01*
X160186000Y-64877740D01*
X160186000Y-65170260D01*
X160243068Y-65457158D01*
X160355010Y-65727411D01*
X160517525Y-65970632D01*
X160649380Y-66102487D01*
X160576820Y-66124498D01*
X160466506Y-66183463D01*
X160369815Y-66262815D01*
X160290463Y-66359506D01*
X160231498Y-66469820D01*
X160195188Y-66589518D01*
X160182928Y-66714000D01*
X160182928Y-68233001D01*
X157895544Y-68233001D01*
X157949000Y-67964260D01*
X157949000Y-67671740D01*
X157891932Y-67384842D01*
X157779990Y-67114589D01*
X157617475Y-66871368D01*
X157410632Y-66664525D01*
X157167411Y-66502010D01*
X156897158Y-66390068D01*
X156610260Y-66333000D01*
X156317740Y-66333000D01*
X156030842Y-66390068D01*
X155760589Y-66502010D01*
X155517368Y-66664525D01*
X155310525Y-66871368D01*
X155194000Y-67045760D01*
X155077475Y-66871368D01*
X154870632Y-66664525D01*
X154627411Y-66502010D01*
X154357158Y-66390068D01*
X154070260Y-66333000D01*
X153777740Y-66333000D01*
X153490842Y-66390068D01*
X153220589Y-66502010D01*
X152977368Y-66664525D01*
X152770525Y-66871368D01*
X152654000Y-67045760D01*
X152537475Y-66871368D01*
X152330632Y-66664525D01*
X152087411Y-66502010D01*
X151817158Y-66390068D01*
X151530260Y-66333000D01*
X151237740Y-66333000D01*
X150950842Y-66390068D01*
X150680589Y-66502010D01*
X150437368Y-66664525D01*
X150230525Y-66871368D01*
X150114000Y-67045760D01*
X149997475Y-66871368D01*
X149790632Y-66664525D01*
X149547411Y-66502010D01*
X149277158Y-66390068D01*
X148990260Y-66333000D01*
X148697740Y-66333000D01*
X148410842Y-66390068D01*
X148140589Y-66502010D01*
X147897368Y-66664525D01*
X147690525Y-66871368D01*
X147574000Y-67045760D01*
X147457475Y-66871368D01*
X147250632Y-66664525D01*
X147007411Y-66502010D01*
X146737158Y-66390068D01*
X146450260Y-66333000D01*
X146157740Y-66333000D01*
X145870842Y-66390068D01*
X145600589Y-66502010D01*
X145357368Y-66664525D01*
X145225513Y-66796380D01*
X145203502Y-66723820D01*
X145144537Y-66613506D01*
X145065185Y-66516815D01*
X144968494Y-66437463D01*
X144858180Y-66378498D01*
X144738482Y-66342188D01*
X144614000Y-66329928D01*
X144049750Y-66333000D01*
X143891000Y-66491750D01*
X143891000Y-67691000D01*
X143911000Y-67691000D01*
X143911000Y-67945000D01*
X143891000Y-67945000D01*
X143891000Y-67965000D01*
X143637000Y-67965000D01*
X143637000Y-67945000D01*
X142437750Y-67945000D01*
X142279000Y-68103750D01*
X142275928Y-68668000D01*
X142288188Y-68792482D01*
X142324498Y-68912180D01*
X142383463Y-69022494D01*
X142462815Y-69119185D01*
X142549104Y-69190000D01*
X130200000Y-69190000D01*
X130200000Y-65514408D01*
X131583000Y-65514408D01*
X131583000Y-65789592D01*
X131636686Y-66059490D01*
X131741995Y-66313727D01*
X131894880Y-66542535D01*
X132089465Y-66737120D01*
X132318273Y-66890005D01*
X132572510Y-66995314D01*
X132842408Y-67049000D01*
X133117592Y-67049000D01*
X133387490Y-66995314D01*
X133641727Y-66890005D01*
X133870535Y-66737120D01*
X134065120Y-66542535D01*
X134218005Y-66313727D01*
X134323314Y-66059490D01*
X134377000Y-65789592D01*
X134377000Y-65660916D01*
X137922000Y-65660916D01*
X137922000Y-65911084D01*
X137970805Y-66156445D01*
X138066541Y-66387571D01*
X138205527Y-66595578D01*
X138382422Y-66772473D01*
X138590429Y-66911459D01*
X138821555Y-67007195D01*
X139066916Y-67056000D01*
X139317084Y-67056000D01*
X139562445Y-67007195D01*
X139657069Y-66968000D01*
X142275928Y-66968000D01*
X142279000Y-67532250D01*
X142437750Y-67691000D01*
X143637000Y-67691000D01*
X143637000Y-66491750D01*
X143478250Y-66333000D01*
X142914000Y-66329928D01*
X142789518Y-66342188D01*
X142669820Y-66378498D01*
X142559506Y-66437463D01*
X142462815Y-66516815D01*
X142383463Y-66613506D01*
X142324498Y-66723820D01*
X142288188Y-66843518D01*
X142275928Y-66968000D01*
X139657069Y-66968000D01*
X139793571Y-66911459D01*
X140001578Y-66772473D01*
X140178473Y-66595578D01*
X140317459Y-66387571D01*
X140413195Y-66156445D01*
X140462000Y-65911084D01*
X140462000Y-65785619D01*
X140705445Y-65737195D01*
X140936571Y-65641459D01*
X141144578Y-65502473D01*
X141321473Y-65325578D01*
X141460459Y-65117571D01*
X141556195Y-64886445D01*
X141605000Y-64641084D01*
X141605000Y-64390916D01*
X141556195Y-64145555D01*
X141460459Y-63914429D01*
X141321473Y-63706422D01*
X141144578Y-63529527D01*
X140936571Y-63390541D01*
X140705445Y-63294805D01*
X140460084Y-63246000D01*
X140209916Y-63246000D01*
X139964555Y-63294805D01*
X139733429Y-63390541D01*
X139525422Y-63529527D01*
X139348527Y-63706422D01*
X139209541Y-63914429D01*
X139113805Y-64145555D01*
X139065000Y-64390916D01*
X139065000Y-64516381D01*
X138821555Y-64564805D01*
X138590429Y-64660541D01*
X138382422Y-64799527D01*
X138205527Y-64976422D01*
X138066541Y-65184429D01*
X137970805Y-65415555D01*
X137922000Y-65660916D01*
X134377000Y-65660916D01*
X134377000Y-65514408D01*
X134323314Y-65244510D01*
X134218005Y-64990273D01*
X134065120Y-64761465D01*
X133870535Y-64566880D01*
X133641727Y-64413995D01*
X133387490Y-64308686D01*
X133117592Y-64255000D01*
X132842408Y-64255000D01*
X132572510Y-64308686D01*
X132318273Y-64413995D01*
X132089465Y-64566880D01*
X131894880Y-64761465D01*
X131741995Y-64990273D01*
X131636686Y-65244510D01*
X131583000Y-65514408D01*
X130200000Y-65514408D01*
X130200000Y-57774408D01*
X135763000Y-57774408D01*
X135763000Y-58049592D01*
X135816686Y-58319490D01*
X135921995Y-58573727D01*
X136074880Y-58802535D01*
X136269465Y-58997120D01*
X136498273Y-59150005D01*
X136575515Y-59182000D01*
X136498273Y-59213995D01*
X136269465Y-59366880D01*
X136074880Y-59561465D01*
X135921995Y-59790273D01*
X135816686Y-60044510D01*
X135763000Y-60314408D01*
X135763000Y-60589592D01*
X135816686Y-60859490D01*
X135921995Y-61113727D01*
X136074880Y-61342535D01*
X136269465Y-61537120D01*
X136498273Y-61690005D01*
X136575515Y-61722000D01*
X136498273Y-61753995D01*
X136269465Y-61906880D01*
X136074880Y-62101465D01*
X135921995Y-62330273D01*
X135816686Y-62584510D01*
X135763000Y-62854408D01*
X135763000Y-63129592D01*
X135816686Y-63399490D01*
X135921995Y-63653727D01*
X136074880Y-63882535D01*
X136269465Y-64077120D01*
X136498273Y-64230005D01*
X136752510Y-64335314D01*
X137022408Y-64389000D01*
X137297592Y-64389000D01*
X137567490Y-64335314D01*
X137821727Y-64230005D01*
X138050535Y-64077120D01*
X138245120Y-63882535D01*
X138398005Y-63653727D01*
X138503314Y-63399490D01*
X138557000Y-63129592D01*
X138557000Y-62854408D01*
X138503314Y-62584510D01*
X138398005Y-62330273D01*
X138245120Y-62101465D01*
X138050535Y-61906880D01*
X137821727Y-61753995D01*
X137744485Y-61722000D01*
X137821727Y-61690005D01*
X138050535Y-61537120D01*
X138245120Y-61342535D01*
X138398005Y-61113727D01*
X138503314Y-60859490D01*
X138557000Y-60589592D01*
X138557000Y-60314408D01*
X138503314Y-60044510D01*
X138398005Y-59790273D01*
X138245120Y-59561465D01*
X138050535Y-59366880D01*
X137821727Y-59213995D01*
X137744485Y-59182000D01*
X137821727Y-59150005D01*
X138050535Y-58997120D01*
X138245120Y-58802535D01*
X138398005Y-58573727D01*
X138503314Y-58319490D01*
X138557000Y-58049592D01*
X138557000Y-57774408D01*
X138503314Y-57504510D01*
X138398005Y-57250273D01*
X138245120Y-57021465D01*
X138050535Y-56826880D01*
X137821727Y-56673995D01*
X137567490Y-56568686D01*
X137297592Y-56515000D01*
X137022408Y-56515000D01*
X136752510Y-56568686D01*
X136498273Y-56673995D01*
X136269465Y-56826880D01*
X136074880Y-57021465D01*
X135921995Y-57250273D01*
X135816686Y-57504510D01*
X135763000Y-57774408D01*
X130200000Y-57774408D01*
X130200000Y-55114408D01*
X131583000Y-55114408D01*
X131583000Y-55389592D01*
X131636686Y-55659490D01*
X131741995Y-55913727D01*
X131894880Y-56142535D01*
X132089465Y-56337120D01*
X132318273Y-56490005D01*
X132572510Y-56595314D01*
X132842408Y-56649000D01*
X133117592Y-56649000D01*
X133387490Y-56595314D01*
X133641727Y-56490005D01*
X133870535Y-56337120D01*
X134065120Y-56142535D01*
X134218005Y-55913727D01*
X134323314Y-55659490D01*
X134377000Y-55389592D01*
X134377000Y-55114408D01*
X134323314Y-54844510D01*
X134218005Y-54590273D01*
X134065120Y-54361465D01*
X133870535Y-54166880D01*
X133641727Y-54013995D01*
X133387490Y-53908686D01*
X133117592Y-53855000D01*
X132842408Y-53855000D01*
X132572510Y-53908686D01*
X132318273Y-54013995D01*
X132089465Y-54166880D01*
X131894880Y-54361465D01*
X131741995Y-54590273D01*
X131636686Y-54844510D01*
X131583000Y-55114408D01*
X130200000Y-55114408D01*
X130200000Y-53492000D01*
X161102810Y-53492000D01*
X160967589Y-53548010D01*
G37*
X160967589Y-53548010D02*
X160724368Y-53710525D01*
X160517525Y-53917368D01*
X160355010Y-54160589D01*
X160243068Y-54430842D01*
X160186000Y-54717740D01*
X160186000Y-55010260D01*
X160243068Y-55297158D01*
X160355010Y-55567411D01*
X160517525Y-55810632D01*
X160724368Y-56017475D01*
X160906534Y-56139195D01*
X160789645Y-56208822D01*
X160573412Y-56403731D01*
X160399359Y-56637080D01*
X160274175Y-56899901D01*
X160229524Y-57047110D01*
X160350845Y-57277000D01*
X161544000Y-57277000D01*
X161544000Y-57257000D01*
X161798000Y-57257000D01*
X161798000Y-57277000D01*
X164084000Y-57277000D01*
X164084000Y-57257000D01*
X164338000Y-57257000D01*
X164338000Y-57277000D01*
X165531155Y-57277000D01*
X165652476Y-57047110D01*
X165607825Y-56899901D01*
X165482641Y-56637080D01*
X165308588Y-56403731D01*
X165092355Y-56208822D01*
X164975466Y-56139195D01*
X165157632Y-56017475D01*
X165364475Y-55810632D01*
X165526990Y-55567411D01*
X165638932Y-55297158D01*
X165696000Y-55010260D01*
X165696000Y-54717740D01*
X165638932Y-54430842D01*
X165526990Y-54160589D01*
X165364475Y-53917368D01*
X165157632Y-53710525D01*
X164914411Y-53548010D01*
X164779190Y-53492000D01*
X165710001Y-53492000D01*
X165710001Y-60368199D01*
X165652210Y-60310408D01*
X165696000Y-60090260D01*
X165696000Y-59797740D01*
X165638932Y-59510842D01*
X165526990Y-59240589D01*
X165364475Y-58997368D01*
X165157632Y-58790525D01*
X164975466Y-58668805D01*
X165092355Y-58599178D01*
X165308588Y-58404269D01*
X165482641Y-58170920D01*
X165607825Y-57908099D01*
X165652476Y-57760890D01*
X165531155Y-57531000D01*
X164338000Y-57531000D01*
X164338000Y-57551000D01*
X164084000Y-57551000D01*
X164084000Y-57531000D01*
X161798000Y-57531000D01*
X161798000Y-57551000D01*
X161544000Y-57551000D01*
X161544000Y-57531000D01*
X160350845Y-57531000D01*
X160229524Y-57760890D01*
X160274175Y-57908099D01*
X160399359Y-58170920D01*
X160573412Y-58404269D01*
X160789645Y-58599178D01*
X160906534Y-58668805D01*
X160724368Y-58790525D01*
X160517525Y-58997368D01*
X160355010Y-59240589D01*
X160243068Y-59510842D01*
X160186000Y-59797740D01*
X160186000Y-60090260D01*
X160243068Y-60377158D01*
X160355010Y-60647411D01*
X160517525Y-60890632D01*
X160724368Y-61097475D01*
X160898760Y-61214000D01*
X160724368Y-61330525D01*
X160517525Y-61537368D01*
X160355010Y-61780589D01*
X160243068Y-62050842D01*
X160186000Y-62337740D01*
X160186000Y-62630260D01*
X160243068Y-62917158D01*
X160355010Y-63187411D01*
X160517525Y-63430632D01*
X160724368Y-63637475D01*
X160898760Y-63754000D01*
X160724368Y-63870525D01*
X160517525Y-64077368D01*
X160355010Y-64320589D01*
X160243068Y-64590842D01*
X160186000Y-64877740D01*
X160186000Y-65170260D01*
X160243068Y-65457158D01*
X160355010Y-65727411D01*
X160517525Y-65970632D01*
X160649380Y-66102487D01*
X160576820Y-66124498D01*
X160466506Y-66183463D01*
X160369815Y-66262815D01*
X160290463Y-66359506D01*
X160231498Y-66469820D01*
X160195188Y-66589518D01*
X160182928Y-66714000D01*
X160182928Y-68233001D01*
X157895544Y-68233001D01*
X157949000Y-67964260D01*
X157949000Y-67671740D01*
X157891932Y-67384842D01*
X157779990Y-67114589D01*
X157617475Y-66871368D01*
X157410632Y-66664525D01*
X157167411Y-66502010D01*
X156897158Y-66390068D01*
X156610260Y-66333000D01*
X156317740Y-66333000D01*
X156030842Y-66390068D01*
X155760589Y-66502010D01*
X155517368Y-66664525D01*
X155310525Y-66871368D01*
X155194000Y-67045760D01*
X155077475Y-66871368D01*
X154870632Y-66664525D01*
X154627411Y-66502010D01*
X154357158Y-66390068D01*
X154070260Y-66333000D01*
X153777740Y-66333000D01*
X153490842Y-66390068D01*
X153220589Y-66502010D01*
X152977368Y-66664525D01*
X152770525Y-66871368D01*
X152654000Y-67045760D01*
X152537475Y-66871368D01*
X152330632Y-66664525D01*
X152087411Y-66502010D01*
X151817158Y-66390068D01*
X151530260Y-66333000D01*
X151237740Y-66333000D01*
X150950842Y-66390068D01*
X150680589Y-66502010D01*
X150437368Y-66664525D01*
X150230525Y-66871368D01*
X150114000Y-67045760D01*
X149997475Y-66871368D01*
X149790632Y-66664525D01*
X149547411Y-66502010D01*
X149277158Y-66390068D01*
X148990260Y-66333000D01*
X148697740Y-66333000D01*
X148410842Y-66390068D01*
X148140589Y-66502010D01*
X147897368Y-66664525D01*
X147690525Y-66871368D01*
X147574000Y-67045760D01*
X147457475Y-66871368D01*
X147250632Y-66664525D01*
X147007411Y-66502010D01*
X146737158Y-66390068D01*
X146450260Y-66333000D01*
X146157740Y-66333000D01*
X145870842Y-66390068D01*
X145600589Y-66502010D01*
X145357368Y-66664525D01*
X145225513Y-66796380D01*
X145203502Y-66723820D01*
X145144537Y-66613506D01*
X145065185Y-66516815D01*
X144968494Y-66437463D01*
X144858180Y-66378498D01*
X144738482Y-66342188D01*
X144614000Y-66329928D01*
X144049750Y-66333000D01*
X143891000Y-66491750D01*
X143891000Y-67691000D01*
X143911000Y-67691000D01*
X143911000Y-67945000D01*
X143891000Y-67945000D01*
X143891000Y-67965000D01*
X143637000Y-67965000D01*
X143637000Y-67945000D01*
X142437750Y-67945000D01*
X142279000Y-68103750D01*
X142275928Y-68668000D01*
X142288188Y-68792482D01*
X142324498Y-68912180D01*
X142383463Y-69022494D01*
X142462815Y-69119185D01*
X142549104Y-69190000D01*
X130200000Y-69190000D01*
X130200000Y-65514408D01*
X131583000Y-65514408D01*
X131583000Y-65789592D01*
X131636686Y-66059490D01*
X131741995Y-66313727D01*
X131894880Y-66542535D01*
X132089465Y-66737120D01*
X132318273Y-66890005D01*
X132572510Y-66995314D01*
X132842408Y-67049000D01*
X133117592Y-67049000D01*
X133387490Y-66995314D01*
X133641727Y-66890005D01*
X133870535Y-66737120D01*
X134065120Y-66542535D01*
X134218005Y-66313727D01*
X134323314Y-66059490D01*
X134377000Y-65789592D01*
X134377000Y-65660916D01*
X137922000Y-65660916D01*
X137922000Y-65911084D01*
X137970805Y-66156445D01*
X138066541Y-66387571D01*
X138205527Y-66595578D01*
X138382422Y-66772473D01*
X138590429Y-66911459D01*
X138821555Y-67007195D01*
X139066916Y-67056000D01*
X139317084Y-67056000D01*
X139562445Y-67007195D01*
X139657069Y-66968000D01*
X142275928Y-66968000D01*
X142279000Y-67532250D01*
X142437750Y-67691000D01*
X143637000Y-67691000D01*
X143637000Y-66491750D01*
X143478250Y-66333000D01*
X142914000Y-66329928D01*
X142789518Y-66342188D01*
X142669820Y-66378498D01*
X142559506Y-66437463D01*
X142462815Y-66516815D01*
X142383463Y-66613506D01*
X142324498Y-66723820D01*
X142288188Y-66843518D01*
X142275928Y-66968000D01*
X139657069Y-66968000D01*
X139793571Y-66911459D01*
X140001578Y-66772473D01*
X140178473Y-66595578D01*
X140317459Y-66387571D01*
X140413195Y-66156445D01*
X140462000Y-65911084D01*
X140462000Y-65785619D01*
X140705445Y-65737195D01*
X140936571Y-65641459D01*
X141144578Y-65502473D01*
X141321473Y-65325578D01*
X141460459Y-65117571D01*
X141556195Y-64886445D01*
X141605000Y-64641084D01*
X141605000Y-64390916D01*
X141556195Y-64145555D01*
X141460459Y-63914429D01*
X141321473Y-63706422D01*
X141144578Y-63529527D01*
X140936571Y-63390541D01*
X140705445Y-63294805D01*
X140460084Y-63246000D01*
X140209916Y-63246000D01*
X139964555Y-63294805D01*
X139733429Y-63390541D01*
X139525422Y-63529527D01*
X139348527Y-63706422D01*
X139209541Y-63914429D01*
X139113805Y-64145555D01*
X139065000Y-64390916D01*
X139065000Y-64516381D01*
X138821555Y-64564805D01*
X138590429Y-64660541D01*
X138382422Y-64799527D01*
X138205527Y-64976422D01*
X138066541Y-65184429D01*
X137970805Y-65415555D01*
X137922000Y-65660916D01*
X134377000Y-65660916D01*
X134377000Y-65514408D01*
X134323314Y-65244510D01*
X134218005Y-64990273D01*
X134065120Y-64761465D01*
X133870535Y-64566880D01*
X133641727Y-64413995D01*
X133387490Y-64308686D01*
X133117592Y-64255000D01*
X132842408Y-64255000D01*
X132572510Y-64308686D01*
X132318273Y-64413995D01*
X132089465Y-64566880D01*
X131894880Y-64761465D01*
X131741995Y-64990273D01*
X131636686Y-65244510D01*
X131583000Y-65514408D01*
X130200000Y-65514408D01*
X130200000Y-57774408D01*
X135763000Y-57774408D01*
X135763000Y-58049592D01*
X135816686Y-58319490D01*
X135921995Y-58573727D01*
X136074880Y-58802535D01*
X136269465Y-58997120D01*
X136498273Y-59150005D01*
X136575515Y-59182000D01*
X136498273Y-59213995D01*
X136269465Y-59366880D01*
X136074880Y-59561465D01*
X135921995Y-59790273D01*
X135816686Y-60044510D01*
X135763000Y-60314408D01*
X135763000Y-60589592D01*
X135816686Y-60859490D01*
X135921995Y-61113727D01*
X136074880Y-61342535D01*
X136269465Y-61537120D01*
X136498273Y-61690005D01*
X136575515Y-61722000D01*
X136498273Y-61753995D01*
X136269465Y-61906880D01*
X136074880Y-62101465D01*
X135921995Y-62330273D01*
X135816686Y-62584510D01*
X135763000Y-62854408D01*
X135763000Y-63129592D01*
X135816686Y-63399490D01*
X135921995Y-63653727D01*
X136074880Y-63882535D01*
X136269465Y-64077120D01*
X136498273Y-64230005D01*
X136752510Y-64335314D01*
X137022408Y-64389000D01*
X137297592Y-64389000D01*
X137567490Y-64335314D01*
X137821727Y-64230005D01*
X138050535Y-64077120D01*
X138245120Y-63882535D01*
X138398005Y-63653727D01*
X138503314Y-63399490D01*
X138557000Y-63129592D01*
X138557000Y-62854408D01*
X138503314Y-62584510D01*
X138398005Y-62330273D01*
X138245120Y-62101465D01*
X138050535Y-61906880D01*
X137821727Y-61753995D01*
X137744485Y-61722000D01*
X137821727Y-61690005D01*
X138050535Y-61537120D01*
X138245120Y-61342535D01*
X138398005Y-61113727D01*
X138503314Y-60859490D01*
X138557000Y-60589592D01*
X138557000Y-60314408D01*
X138503314Y-60044510D01*
X138398005Y-59790273D01*
X138245120Y-59561465D01*
X138050535Y-59366880D01*
X137821727Y-59213995D01*
X137744485Y-59182000D01*
X137821727Y-59150005D01*
X138050535Y-58997120D01*
X138245120Y-58802535D01*
X138398005Y-58573727D01*
X138503314Y-58319490D01*
X138557000Y-58049592D01*
X138557000Y-57774408D01*
X138503314Y-57504510D01*
X138398005Y-57250273D01*
X138245120Y-57021465D01*
X138050535Y-56826880D01*
X137821727Y-56673995D01*
X137567490Y-56568686D01*
X137297592Y-56515000D01*
X137022408Y-56515000D01*
X136752510Y-56568686D01*
X136498273Y-56673995D01*
X136269465Y-56826880D01*
X136074880Y-57021465D01*
X135921995Y-57250273D01*
X135816686Y-57504510D01*
X135763000Y-57774408D01*
X130200000Y-57774408D01*
X130200000Y-55114408D01*
X131583000Y-55114408D01*
X131583000Y-55389592D01*
X131636686Y-55659490D01*
X131741995Y-55913727D01*
X131894880Y-56142535D01*
X132089465Y-56337120D01*
X132318273Y-56490005D01*
X132572510Y-56595314D01*
X132842408Y-56649000D01*
X133117592Y-56649000D01*
X133387490Y-56595314D01*
X133641727Y-56490005D01*
X133870535Y-56337120D01*
X134065120Y-56142535D01*
X134218005Y-55913727D01*
X134323314Y-55659490D01*
X134377000Y-55389592D01*
X134377000Y-55114408D01*
X134323314Y-54844510D01*
X134218005Y-54590273D01*
X134065120Y-54361465D01*
X133870535Y-54166880D01*
X133641727Y-54013995D01*
X133387490Y-53908686D01*
X133117592Y-53855000D01*
X132842408Y-53855000D01*
X132572510Y-53908686D01*
X132318273Y-54013995D01*
X132089465Y-54166880D01*
X131894880Y-54361465D01*
X131741995Y-54590273D01*
X131636686Y-54844510D01*
X131583000Y-55114408D01*
X130200000Y-55114408D01*
X130200000Y-53492000D01*
X161102810Y-53492000D01*
X160967589Y-53548010D01*
%TD*%
M02*
